<?xml version="1.0" standalone="no"?>
<!DOCTYPE svg PUBLIC "-//W3C//DTD SVG 20010904//EN"
 "http://www.w3.org/TR/2001/REC-SVG-20010904/DTD/svg10.dtd">
<svg version="1.0" xmlns="http://www.w3.org/2000/svg"
 width="2094.000000pt" height="2013.000000pt" viewBox="0 0 2094.000000 2013.000000"
 preserveAspectRatio="xMidYMid meet">

<g transform="translate(0.000000,2013.000000) scale(0.100000,-0.100000)"
fill="#000000" stroke="none">
<path d="M1820 19823 c-41 -2 -79 -8 -84 -13 -6 -6 -43 -10 -83 -10 -40 0 -73
-4 -73 -9 0 -5 -25 -12 -55 -16 -30 -3 -55 -11 -55 -16 0 -5 -16 -9 -36 -9
-19 0 -42 -7 -50 -15 -9 -8 -26 -15 -40 -15 -13 0 -24 -4 -24 -10 0 -5 -11
-10 -25 -10 -16 0 -25 -6 -25 -15 0 -10 -10 -15 -30 -15 -16 0 -30 -4 -30 -10
0 -5 -11 -12 -25 -16 -14 -3 -25 -10 -25 -15 0 -5 -11 -9 -25 -9 -16 0 -25 -6
-25 -15 0 -8 -7 -15 -15 -15 -8 0 -15 -4 -15 -10 0 -5 -9 -10 -20 -10 -11 0
-23 -7 -26 -15 -4 -8 -10 -15 -16 -15 -5 0 -16 -6 -23 -12 -30 -27 -44 -38
-50 -38 -3 0 -23 -18 -45 -40 -22 -22 -42 -40 -45 -40 -16 0 -85 -69 -85 -85
0 -8 -7 -15 -15 -15 -8 0 -15 -5 -15 -11 0 -7 -16 -26 -35 -45 -19 -18 -35
-37 -35 -43 0 -6 -7 -11 -15 -11 -9 0 -15 -9 -15 -25 0 -16 -6 -25 -15 -25 -8
0 -15 -7 -15 -15 0 -8 -4 -15 -9 -15 -5 0 -12 -11 -15 -25 -4 -14 -11 -25 -16
-25 -6 0 -10 -7 -10 -15 0 -8 -4 -15 -10 -15 -5 0 -12 -11 -16 -25 -3 -14 -10
-25 -15 -25 -5 0 -9 -11 -9 -25 0 -14 -4 -25 -10 -25 -5 0 -12 -11 -16 -25 -3
-14 -10 -25 -15 -25 -5 0 -9 -11 -9 -24 0 -13 -7 -26 -15 -30 -9 -3 -15 -19
-15 -41 0 -19 -4 -35 -9 -35 -5 0 -11 -18 -15 -40 -3 -22 -10 -40 -15 -40 -5
0 -11 -19 -14 -42 -3 -24 -10 -61 -16 -83 -6 -22 -11 -61 -11 -87 0 -27 -4
-48 -10 -48 -7 0 -10 -2797 -10 -8370 0 -4646 4 -8370 9 -8370 4 0 11 -27 14
-60 4 -34 11 -69 17 -80 5 -10 10 -37 10 -59 0 -23 4 -41 10 -41 5 0 12 -22
16 -50 4 -27 10 -50 15 -50 5 0 9 -11 9 -24 0 -13 7 -26 15 -30 9 -3 15 -18
15 -36 0 -16 4 -30 9 -30 5 0 12 -13 16 -30 4 -16 11 -30 16 -30 5 0 9 -7 9
-15 0 -8 4 -15 10 -15 5 0 12 -11 16 -25 3 -14 10 -25 15 -25 5 0 9 -11 9 -25
0 -16 6 -25 15 -25 8 0 15 -9 15 -20 0 -12 11 -31 25 -44 14 -13 25 -28 25
-35 0 -6 4 -11 9 -11 5 0 13 -10 17 -22 8 -26 28 -48 43 -48 6 0 11 -5 11 -11
0 -7 11 -22 25 -35 14 -13 25 -26 25 -29 0 -10 28 -35 39 -35 6 0 11 -5 11
-11 0 -11 24 -39 34 -39 4 0 29 -22 56 -50 27 -27 54 -50 60 -50 5 0 10 -7 10
-15 0 -9 9 -15 25 -15 16 0 25 -6 25 -15 0 -8 7 -15 15 -15 8 0 15 -4 15 -9 0
-5 11 -12 25 -15 14 -4 25 -11 25 -16 0 -6 7 -10 15 -10 8 0 15 -4 15 -9 0 -5
11 -12 25 -15 14 -4 25 -11 25 -16 0 -6 11 -10 25 -10 14 0 25 -4 25 -10 0 -5
11 -12 25 -16 14 -3 25 -10 25 -14 0 -4 18 -10 40 -14 22 -3 40 -11 40 -16 0
-6 11 -10 25 -10 14 0 25 -4 25 -9 0 -5 18 -11 40 -15 22 -3 40 -11 40 -16 0
-6 24 -10 54 -10 31 0 56 -5 58 -11 2 -6 36 -14 76 -17 40 -2 72 -9 72 -13 0
-5 3798 -9 8680 -9 5780 0 8680 3 8680 10 0 6 29 10 68 10 44 0 75 5 88 15 10
8 40 15 67 15 26 0 47 4 47 9 0 4 21 11 47 14 26 3 49 10 51 16 2 6 15 11 29
11 13 0 31 7 39 15 9 8 26 15 40 15 13 0 24 4 24 9 0 5 11 12 25 15 14 4 25
11 25 16 0 6 11 10 25 10 14 0 25 4 25 9 0 5 14 12 30 16 17 4 30 10 30 15 0
4 11 11 25 14 14 4 25 11 25 16 0 6 5 10 10 10 6 0 23 11 38 25 15 14 30 25
35 25 4 0 18 11 31 25 13 14 26 25 30 25 8 0 24 13 66 52 15 16 33 28 39 28 6
0 11 7 11 15 0 8 5 15 11 15 14 0 39 25 39 39 0 6 7 11 15 11 8 0 15 5 15 11
0 14 25 39 39 39 6 0 11 11 11 25 0 16 6 25 15 25 8 0 15 5 15 11 0 7 11 22
25 35 14 13 25 30 25 37 0 8 7 17 15 21 8 3 15 12 15 21 0 8 5 15 10 15 6 0
10 9 10 19 0 10 7 21 15 25 8 3 15 15 15 26 0 11 4 20 9 20 5 0 12 11 15 25 4
14 11 25 16 25 6 0 10 14 10 30 0 17 4 30 10 30 5 0 12 11 16 25 3 14 10 25
15 25 5 0 9 13 9 29 0 16 7 36 15 45 8 8 15 31 15 50 0 20 4 36 9 36 5 0 11
18 15 40 3 22 10 40 15 40 5 0 11 37 14 83 2 45 9 102 16 127 17 68 11 16664
-6 16682 -8 7 -13 40 -13 85 0 40 -4 73 -9 73 -5 0 -13 25 -16 55 -4 30 -11
55 -16 55 -5 0 -9 15 -9 33 0 17 -7 41 -15 51 -8 11 -15 30 -15 43 0 13 -4 23
-9 23 -5 0 -12 11 -15 25 -4 14 -11 25 -16 25 -6 0 -10 14 -10 30 0 17 -4 30
-10 30 -5 0 -12 11 -16 25 -3 14 -10 25 -15 25 -5 0 -9 11 -9 25 0 16 -6 25
-15 25 -9 0 -15 9 -15 21 0 12 -11 32 -25 45 -14 13 -25 32 -25 44 0 11 -7 20
-15 20 -8 0 -15 5 -15 11 0 14 -25 39 -39 39 -6 0 -11 9 -11 20 0 11 -22 42
-50 69 -27 27 -50 54 -50 60 0 6 -5 11 -11 11 -6 0 -33 22 -60 50 -27 27 -53
50 -58 50 -6 0 -21 11 -35 25 -14 14 -30 25 -36 25 -5 0 -10 7 -10 15 0 8 -9
15 -20 15 -12 0 -31 11 -44 25 -13 14 -33 25 -45 25 -12 0 -21 6 -21 15 0 9
-9 15 -25 15 -14 0 -25 4 -25 9 0 5 -11 12 -25 15 -14 4 -25 11 -25 16 0 6
-11 10 -25 10 -14 0 -28 7 -31 15 -4 8 -17 15 -30 15 -13 0 -24 4 -24 9 0 5
-18 11 -40 15 -22 3 -40 11 -40 16 0 6 -18 10 -40 10 -22 0 -40 4 -40 9 0 5
-23 12 -50 16 -27 4 -50 11 -50 15 0 5 -37 11 -82 14 -46 3 -123 9 -173 15
-83 9 -17043 12 -17235 4z m5467 -2068 c19 -8 57 -15 84 -15 27 0 49 -4 49 -9
0 -5 28 -11 62 -13 35 -3 64 -10 66 -16 2 -7 24 -12 54 -12 31 0 55 -6 64 -15
9 -8 33 -15 55 -15 21 0 39 -4 39 -10 0 -5 22 -10 49 -10 34 0 51 -4 55 -15 4
-10 20 -15 51 -15 25 0 45 -4 45 -9 0 -4 19 -11 42 -14 24 -3 44 -11 46 -16 2
-6 30 -11 64 -11 39 0 64 -5 74 -15 11 -10 36 -15 80 -15 36 0 64 -4 64 -10 0
-5 24 -10 54 -10 35 0 60 -5 70 -15 11 -11 39 -15 115 -15 56 0 101 -4 101 -9
0 -4 105 -11 233 -15 127 -4 234 -12 235 -17 2 -5 61 -9 131 -9 96 0 132 -4
147 -15 14 -10 47 -14 122 -15 61 0 102 -4 102 -10 0 -6 28 -10 63 -10 35 0
74 -6 91 -15 16 -9 55 -15 92 -15 35 0 64 -4 64 -9 0 -5 23 -11 50 -15 28 -4
50 -11 50 -16 0 -6 20 -10 44 -10 26 0 48 -6 56 -15 7 -8 23 -15 36 -15 13 0
24 -4 24 -10 0 -5 11 -10 24 -10 14 0 31 -7 40 -15 8 -8 26 -15 40 -15 16 0
26 -6 26 -15 0 -9 9 -15 25 -15 14 0 25 -4 25 -10 0 -5 11 -10 25 -10 16 0 25
-6 25 -15 0 -9 9 -15 25 -15 14 0 25 -4 25 -9 0 -5 14 -12 30 -16 17 -4 30
-11 30 -16 0 -5 7 -9 15 -9 8 0 15 -4 15 -10 0 -5 11 -12 25 -16 14 -3 25 -10
25 -15 0 -5 9 -9 20 -9 11 0 23 -7 26 -15 4 -8 10 -15 15 -15 9 0 21 -8 54
-37 7 -7 18 -13 24 -13 6 0 11 -4 11 -9 0 -5 11 -12 25 -15 14 -4 25 -11 25
-16 0 -6 7 -10 15 -10 8 0 15 -7 15 -15 0 -8 5 -15 11 -15 7 0 22 -11 35 -25
13 -14 28 -25 34 -25 6 0 21 -11 34 -25 13 -14 28 -25 35 -25 6 0 11 -5 11
-11 0 -14 55 -69 69 -69 6 0 11 -5 11 -11 0 -7 11 -22 25 -35 14 -13 25 -28
25 -34 0 -6 11 -21 25 -34 14 -13 25 -28 25 -35 0 -6 7 -11 15 -11 9 0 15 -9
15 -21 0 -12 16 -36 35 -55 19 -18 35 -42 35 -53 0 -12 7 -21 15 -21 9 0 15
-9 15 -24 0 -13 7 -26 15 -30 8 -3 15 -12 15 -21 0 -8 5 -15 10 -15 6 0 10 -9
10 -20 0 -11 7 -23 15 -26 9 -4 15 -19 15 -40 0 -19 4 -34 9 -34 5 0 12 -22
16 -50 4 -27 11 -50 16 -50 15 0 10 -80 -5 -96 -8 -8 -24 -14 -36 -14 -11 0
-23 -7 -26 -15 -4 -8 -12 -15 -20 -15 -8 0 -14 -4 -14 -10 0 -5 -9 -10 -20
-10 -11 0 -23 -7 -26 -15 -4 -8 -17 -15 -30 -15 -13 0 -24 -4 -24 -10 0 -5
-11 -12 -25 -16 -14 -3 -25 -10 -25 -15 0 -5 -10 -9 -22 -9 -13 0 -32 -7 -42
-15 -11 -8 -30 -15 -43 -15 -13 0 -23 -4 -23 -10 0 -5 -11 -10 -25 -10 -16 0
-25 -6 -25 -15 0 -11 -11 -15 -40 -15 -22 0 -40 -4 -40 -10 0 -5 -18 -13 -40
-16 -22 -4 -40 -10 -40 -15 0 -5 -17 -9 -38 -9 -21 0 -47 -7 -58 -15 -10 -8
-38 -15 -61 -15 -24 0 -43 -4 -43 -9 0 -4 -19 -11 -42 -14 -24 -3 -44 -11 -46
-16 -2 -6 -25 -11 -52 -11 -28 0 -50 -5 -52 -12 -2 -6 -31 -13 -66 -16 -34 -2
-62 -8 -62 -13 0 -5 -29 -9 -64 -9 -44 0 -67 -5 -76 -15 -10 -12 -36 -15 -116
-15 -57 0 -104 -4 -104 -9 0 -4 -48 -11 -107 -14 -64 -3 -109 -9 -111 -16 -2
-7 -32 -11 -74 -11 -48 0 -74 -5 -84 -15 -9 -9 -34 -15 -60 -15 -24 0 -44 -4
-44 -10 0 -6 -27 -10 -60 -10 -45 0 -62 -4 -66 -15 -5 -11 -22 -15 -70 -15
-35 0 -64 -4 -64 -9 0 -5 -29 -12 -65 -16 -36 -3 -65 -11 -65 -16 0 -5 -28 -9
-63 -9 -40 0 -70 -5 -83 -15 -11 -9 -42 -14 -76 -15 -32 0 -58 -4 -58 -10 0
-5 -23 -10 -50 -10 -36 0 -52 -4 -56 -15 -5 -11 -21 -15 -60 -15 -30 0 -54 -4
-54 -9 0 -4 -27 -11 -60 -15 -33 -4 -60 -11 -60 -16 0 -6 -23 -10 -51 -10 -31
0 -56 -6 -65 -15 -10 -9 -34 -15 -65 -15 -27 0 -49 -4 -49 -10 0 -5 -20 -10
-44 -10 -26 0 -51 -6 -60 -15 -9 -9 -34 -15 -65 -15 -28 0 -51 -4 -51 -9 0 -4
-28 -11 -62 -14 -34 -3 -64 -10 -66 -16 -2 -6 -29 -11 -62 -11 -42 0 -59 -4
-64 -15 -4 -11 -20 -15 -56 -15 -27 0 -50 -4 -50 -10 0 -5 -18 -10 -40 -10
-29 0 -40 -4 -40 -15 0 -11 -11 -15 -36 -15 -19 0 -42 -7 -50 -15 -9 -8 -29
-15 -45 -15 -16 0 -29 -4 -29 -10 0 -5 -15 -10 -32 -10 -18 0 -42 -7 -52 -15
-11 -8 -35 -15 -53 -15 -18 0 -33 -4 -33 -10 0 -5 -13 -10 -29 -10 -16 0 -36
-7 -45 -15 -8 -8 -30 -15 -49 -15 -22 0 -37 -6 -41 -15 -3 -8 -17 -15 -31 -15
-14 0 -25 -4 -25 -10 0 -5 -16 -10 -35 -10 -24 0 -35 -5 -35 -15 0 -10 -10
-15 -30 -15 -16 0 -30 -4 -30 -9 0 -5 -16 -12 -35 -15 -19 -4 -35 -11 -35 -16
0 -6 -11 -10 -24 -10 -13 0 -26 -7 -30 -15 -3 -8 -14 -15 -25 -15 -40 0 -43
-108 -3 -125 12 -5 22 -13 22 -17 0 -5 7 -8 15 -8 8 0 15 -7 15 -15 0 -12 17
-15 90 -15 53 0 90 -4 90 -10 0 -5 7 -10 15 -10 8 0 15 5 15 10 0 6 62 10 166
10 134 0 168 3 180 15 11 10 36 15 85 15 39 0 69 4 69 10 0 6 30 10 71 10 49
0 75 4 85 15 11 10 36 15 80 15 35 0 64 4 64 9 0 5 25 13 55 16 30 4 55 11 55
16 0 5 22 9 49 9 34 0 51 4 55 15 4 11 20 15 56 15 27 0 50 5 50 10 0 6 13 10
29 10 16 0 36 7 45 15 9 10 34 15 70 15 31 0 56 4 56 9 0 5 25 12 55 16 30 3
55 11 55 16 0 5 24 9 54 9 35 0 60 5 70 15 9 9 34 15 65 15 28 0 51 4 51 9 0
5 28 11 62 13 35 3 64 10 66 16 2 8 33 12 92 12 61 0 90 4 92 12 3 8 33 14 81
16 42 2 77 8 77 13 0 5 33 9 73 9 49 0 80 5 93 15 12 9 44 14 92 15 39 0 72 4
72 9 0 5 35 11 77 13 48 2 78 8 81 16 2 8 32 12 97 12 59 0 95 4 97 11 2 6 41
13 91 16 48 3 87 9 87 13 0 4 61 9 135 12 88 2 139 8 147 16 8 8 47 12 114 12
60 0 104 4 106 10 2 6 33 13 71 17 37 3 67 10 67 14 0 5 31 9 69 9 44 0 71 4
73 12 6 16 228 25 228 9 0 -15 -55 -71 -69 -71 -6 0 -11 -7 -11 -15 0 -8 -9
-15 -20 -15 -11 0 -20 -4 -20 -10 0 -5 -7 -10 -15 -10 -9 0 -18 -7 -21 -15 -4
-8 -14 -15 -24 -15 -10 0 -20 -7 -24 -15 -3 -8 -15 -15 -26 -15 -11 0 -20 -4
-20 -10 0 -5 -7 -10 -15 -10 -9 0 -18 -7 -21 -15 -4 -8 -17 -15 -30 -15 -13 0
-24 -4 -24 -10 0 -5 -16 -10 -35 -10 -24 0 -35 -5 -35 -15 0 -8 -9 -15 -20
-15 -12 0 -31 -11 -44 -25 -17 -18 -34 -25 -60 -25 -25 0 -36 -4 -36 -15 0 -9
-9 -15 -25 -15 -14 0 -25 -4 -25 -9 0 -5 -13 -12 -30 -16 -16 -4 -30 -11 -30
-16 0 -5 -16 -9 -35 -9 -19 0 -35 -4 -35 -9 0 -5 -13 -12 -30 -16 -16 -4 -30
-11 -30 -16 0 -5 -16 -9 -35 -9 -24 0 -35 -5 -35 -15 0 -10 -10 -15 -30 -15
-16 0 -30 -4 -30 -10 0 -5 -16 -12 -35 -16 -19 -3 -35 -10 -35 -15 0 -5 -12
-9 -26 -9 -14 0 -32 -7 -40 -15 -9 -8 -29 -15 -45 -15 -16 0 -29 -4 -29 -10 0
-5 -16 -10 -35 -10 -24 0 -35 -5 -35 -15 0 -11 -11 -15 -40 -15 -22 0 -40 -4
-40 -9 0 -5 -22 -11 -50 -15 -27 -4 -50 -11 -50 -16 0 -6 -25 -10 -55 -10 -42
0 -55 -3 -55 -15 0 -11 -12 -15 -50 -15 -27 0 -50 -4 -50 -9 0 -5 -23 -11 -52
-13 -29 -3 -54 -11 -56 -17 -2 -6 -25 -11 -53 -11 -27 0 -49 -4 -49 -9 0 -5
-22 -12 -50 -16 -27 -4 -50 -11 -50 -16 0 -5 -23 -9 -51 -9 -31 0 -56 -6 -65
-15 -9 -8 -33 -15 -55 -15 -21 0 -39 -4 -39 -9 0 -4 -19 -11 -42 -14 -24 -3
-44 -11 -46 -16 -2 -6 -23 -11 -47 -11 -29 0 -45 -5 -49 -15 -3 -9 -19 -15
-41 -15 -19 0 -35 -4 -35 -10 0 -5 -17 -10 -37 -10 -21 0 -47 -7 -57 -15 -11
-8 -32 -15 -48 -15 -15 0 -28 -4 -28 -10 0 -5 -15 -10 -34 -10 -19 0 -41 -7
-50 -15 -8 -8 -30 -15 -49 -15 -20 0 -37 -5 -39 -11 -2 -5 -22 -13 -46 -16
-23 -3 -42 -10 -42 -14 0 -5 -15 -9 -33 -9 -18 0 -42 -7 -53 -15 -10 -8 -36
-15 -56 -15 -21 0 -38 -4 -38 -9 0 -5 -18 -12 -40 -16 -22 -4 -40 -11 -40 -16
0 -5 -20 -9 -44 -9 -24 0 -60 -7 -79 -15 -20 -8 -52 -15 -72 -15 -19 0 -35 -4
-35 -10 0 -5 -22 -10 -49 -10 -34 0 -51 -4 -55 -15 -4 -11 -22 -15 -71 -15
-36 0 -65 -4 -65 -9 0 -5 -39 -12 -87 -16 -49 -4 -91 -11 -94 -17 -8 -12 -790
-12 -798 1 -3 5 -48 12 -99 16 -50 4 -92 11 -92 16 0 5 -21 9 -46 9 -27 0 -51
6 -60 15 -9 8 -33 15 -55 15 -21 0 -39 5 -39 10 0 6 -10 10 -22 10 -13 0 -32
7 -42 15 -11 8 -32 15 -48 15 -15 0 -28 4 -28 9 0 5 -11 12 -25 15 -14 4 -25
11 -25 16 0 6 -9 10 -21 10 -11 0 -27 7 -35 15 -9 8 -26 15 -40 15 -13 0 -24
5 -24 10 0 6 -7 10 -15 10 -9 0 -18 7 -21 15 -4 8 -17 15 -30 15 -13 0 -24 4
-24 10 0 5 -11 12 -25 16 -14 3 -25 10 -25 14 0 4 -11 11 -25 14 -14 4 -25 11
-25 16 0 6 -5 10 -11 10 -7 0 -22 11 -35 25 -13 14 -28 25 -34 25 -6 0 -21 11
-34 25 -13 14 -28 25 -35 25 -6 0 -11 7 -11 15 0 8 -5 15 -11 15 -14 0 -39 25
-39 39 0 6 -11 11 -25 11 -14 0 -25 5 -25 11 0 14 -25 39 -39 39 -6 0 -11 7
-11 15 0 8 -7 15 -15 15 -8 0 -15 5 -15 11 0 14 -25 39 -39 39 -6 0 -11 7 -11
15 0 8 -5 15 -11 15 -14 0 -39 25 -39 39 0 6 -7 11 -15 11 -8 0 -15 9 -15 20
0 12 -11 31 -25 44 -14 13 -25 33 -25 45 0 12 -6 21 -15 21 -10 0 -15 10 -15
30 0 17 -4 30 -10 30 -5 0 -10 16 -10 35 0 24 -5 35 -15 35 -11 0 -15 11 -15
40 0 22 -4 40 -9 40 -5 0 -12 23 -16 50 -4 28 -11 50 -16 50 -5 0 -9 23 -9 51
0 31 -6 56 -15 65 -10 10 -15 35 -15 70 0 30 -4 54 -10 54 -5 0 -10 11 -10 25
0 15 -6 25 -14 25 -8 0 -17 6 -20 13 -5 10 -7 10 -12 0 -3 -7 -10 -13 -14 -13
-15 0 -67 -55 -75 -79 -3 -11 -11 -21 -16 -21 -5 0 -9 -11 -9 -24 0 -13 -7
-26 -15 -30 -9 -3 -15 -19 -15 -41 0 -19 -4 -35 -10 -35 -5 0 -10 -19 -10 -42
-1 -24 -7 -54 -15 -68 -21 -37 -21 -347 0 -374 10 -13 15 -43 15 -83 0 -35 4
-63 10 -63 6 0 10 -18 10 -39 0 -22 7 -46 15 -55 8 -8 15 -30 15 -49 0 -22 6
-37 15 -41 8 -3 15 -17 15 -31 0 -14 5 -25 10 -25 6 0 10 -11 10 -24 0 -14 7
-31 15 -40 8 -8 15 -19 15 -25 0 -6 5 -11 10 -11 6 0 10 -11 10 -25 0 -16 6
-25 15 -25 8 0 15 -9 15 -20 0 -12 11 -31 25 -44 14 -13 25 -28 25 -35 0 -6 7
-11 15 -11 8 0 15 -5 15 -10 0 -10 8 -22 38 -55 6 -7 12 -18 12 -24 0 -6 7
-11 15 -11 8 0 15 -7 15 -15 0 -8 5 -15 11 -15 14 0 39 -25 39 -39 0 -6 11
-11 25 -11 16 0 25 -6 25 -15 0 -8 6 -15 13 -15 7 0 21 -11 31 -25 10 -14 27
-25 37 -25 11 0 19 -4 19 -10 0 -5 7 -10 15 -10 9 0 18 -7 21 -15 4 -8 17 -15
30 -15 13 0 24 -4 24 -10 0 -5 11 -12 25 -16 14 -3 25 -10 25 -15 0 -5 11 -9
25 -9 16 0 25 -6 25 -15 0 -9 9 -15 25 -15 14 0 25 -4 25 -9 0 -5 18 -11 40
-15 22 -3 40 -11 40 -16 0 -6 18 -10 40 -10 29 0 40 -4 40 -15 0 -9 9 -15 25
-15 14 0 25 -4 25 -10 0 -5 11 -10 25 -10 16 0 25 -6 25 -15 0 -10 11 -15 35
-15 19 0 35 -4 35 -10 0 -5 9 -10 19 -10 11 0 26 -7 35 -15 8 -8 29 -15 46
-15 17 0 38 -7 46 -15 9 -8 29 -15 45 -15 16 0 29 -4 29 -10 0 -5 11 -10 24
-10 14 0 31 -7 40 -15 8 -8 31 -15 50 -15 20 0 36 -4 36 -9 0 -5 14 -12 30
-16 17 -4 30 -11 30 -16 0 -5 21 -9 46 -9 27 0 51 -6 60 -15 9 -8 29 -15 45
-15 24 0 29 -4 29 -25 0 -20 -5 -25 -25 -25 -14 0 -25 -4 -25 -10 0 -5 -7 -10
-15 -10 -8 0 -15 -7 -15 -15 0 -9 -9 -15 -25 -15 -16 0 -25 -6 -25 -15 0 -8
-7 -15 -15 -15 -8 0 -15 -4 -15 -8 0 -5 -17 -17 -37 -28 -21 -10 -48 -29 -60
-41 -12 -13 -27 -23 -33 -23 -6 0 -21 -11 -33 -24 -12 -13 -32 -26 -44 -30
-13 -4 -23 -12 -23 -17 0 -5 -7 -9 -15 -9 -8 0 -15 -7 -15 -15 0 -8 -5 -15
-10 -15 -6 0 -22 -11 -36 -25 -14 -14 -29 -25 -35 -25 -5 0 -20 -11 -33 -25
-13 -14 -28 -25 -35 -25 -6 0 -11 -5 -11 -11 0 -14 -25 -39 -39 -39 -6 0 -11
-4 -11 -10 0 -5 -11 -12 -25 -16 -14 -3 -25 -11 -25 -16 0 -13 -26 -38 -39
-38 -6 0 -11 -7 -11 -15 0 -8 -5 -15 -11 -15 -7 0 -26 -16 -45 -35 -18 -19
-37 -35 -43 -35 -6 0 -11 -7 -11 -15 0 -8 -7 -15 -15 -15 -9 0 -26 -11 -39
-25 -13 -14 -28 -25 -35 -25 -6 0 -11 -7 -11 -15 0 -8 -5 -15 -11 -15 -7 0
-22 -11 -35 -25 -13 -14 -30 -25 -39 -25 -8 0 -15 -7 -15 -15 0 -8 -5 -15 -11
-15 -6 0 -33 -22 -60 -50 -27 -27 -53 -50 -59 -50 -5 0 -10 -5 -10 -11 0 -14
-25 -39 -39 -39 -6 0 -11 -5 -11 -11 0 -6 -34 -44 -75 -85 -41 -41 -75 -78
-75 -84 0 -5 -7 -10 -15 -10 -9 0 -15 -9 -15 -25 0 -14 -5 -25 -11 -25 -14 0
-39 -25 -39 -39 0 -6 -7 -11 -15 -11 -8 0 -15 -5 -15 -11 0 -7 -11 -22 -25
-35 -14 -13 -25 -28 -25 -34 0 -6 -11 -21 -25 -34 -14 -13 -25 -28 -25 -35 0
-6 -7 -11 -15 -11 -9 0 -15 -9 -15 -21 0 -12 -11 -32 -25 -45 -14 -13 -25 -32
-25 -44 0 -11 -5 -20 -11 -20 -17 0 -39 -27 -39 -49 0 -12 -6 -21 -15 -21 -9
0 -15 -9 -15 -25 0 -14 -4 -25 -9 -25 -5 0 -12 -13 -16 -30 -4 -16 -11 -30
-16 -30 -5 0 -9 -5 -9 -11 0 -6 -7 -17 -15 -25 -8 -9 -15 -26 -15 -39 0 -13
-3 -25 -7 -27 -13 -5 -43 -68 -43 -89 0 -10 -4 -19 -9 -19 -5 0 -12 -11 -15
-25 -4 -14 -11 -25 -16 -25 -6 0 -10 -16 -10 -36 0 -19 -7 -42 -15 -50 -8 -9
-15 -33 -15 -55 0 -21 -4 -39 -9 -39 -5 0 -11 -18 -15 -40 -3 -22 -11 -40 -16
-40 -6 0 -10 -18 -10 -40 0 -22 -4 -40 -10 -40 -5 0 -10 -18 -10 -40 0 -22 5
-40 10 -40 6 0 10 -18 10 -40 0 -36 3 -40 24 -40 14 0 31 7 40 15 8 8 19 15
25 15 6 0 11 7 11 15 0 8 4 15 9 15 5 0 32 23 59 50 27 28 55 50 61 50 6 0 11
5 11 11 0 14 25 39 39 39 6 0 11 7 11 15 0 8 5 15 11 15 14 0 39 25 39 39 0 6
7 11 15 11 8 0 15 5 15 11 0 14 25 39 39 39 6 0 11 5 11 11 0 7 16 26 35 45
19 18 35 37 35 43 0 6 7 11 15 11 8 0 15 5 15 11 0 11 24 39 34 39 4 0 28 23
55 50 27 28 54 50 60 50 6 0 11 7 11 15 0 8 7 15 15 15 8 0 15 5 15 11 0 11
25 39 35 39 4 0 20 12 35 28 45 42 58 52 70 52 5 0 10 7 10 15 0 8 5 15 11 15
7 0 22 11 35 25 13 14 28 25 34 25 6 0 21 11 34 25 13 14 28 25 35 25 6 0 11
5 11 11 0 14 25 39 39 39 6 0 11 7 11 15 0 9 9 15 25 15 16 0 25 6 25 15 0 8
5 15 11 15 6 0 25 15 42 34 18 18 42 36 55 40 12 4 22 12 22 17 0 5 5 9 11 9
6 0 28 18 50 40 22 22 46 40 54 40 8 0 15 5 15 10 0 6 7 10 15 10 8 0 15 7 15
15 0 8 7 15 15 15 8 0 15 4 15 9 0 5 10 13 22 17 12 3 36 21 52 39 17 18 41
35 54 39 12 4 22 12 22 17 0 5 7 9 15 9 8 0 15 7 15 15 0 9 9 15 23 15 12 0
31 11 41 25 10 14 25 25 32 25 8 0 14 5 14 10 0 6 9 10 20 10 11 0 20 7 20 15
0 8 9 15 20 15 12 0 31 11 43 24 12 13 32 26 45 30 12 4 22 12 22 17 0 5 7 9
15 9 8 0 15 4 15 9 0 5 11 12 25 15 14 4 25 11 25 16 0 6 9 10 20 10 12 0 31
11 44 25 13 14 33 25 45 25 12 0 21 6 21 15 0 9 9 15 25 15 14 0 25 5 25 10 0
6 7 10 15 10 8 0 15 7 15 15 0 9 9 15 24 15 13 0 26 7 30 15 3 8 15 15 26 15
11 0 20 5 20 10 0 6 7 10 15 10 8 0 15 7 15 15 0 9 9 15 25 15 14 0 25 5 25
10 0 6 7 10 15 10 8 0 15 7 15 15 0 9 9 15 25 15 16 0 25 6 25 15 0 9 9 15 25
15 14 0 25 5 25 10 0 6 7 10 15 10 8 0 15 7 15 15 0 9 9 15 25 15 16 0 25 6
25 15 0 8 7 15 15 15 8 0 15 5 15 10 0 6 11 10 25 10 16 0 25 6 25 15 0 9 9
15 25 15 14 0 25 4 25 9 0 5 11 12 25 15 14 4 25 11 25 16 0 6 7 10 15 10 8 0
15 4 15 10 0 5 11 12 25 16 14 3 25 10 25 15 0 5 11 9 24 9 13 0 26 7 30 15 3
8 17 15 31 15 14 0 25 4 25 10 0 5 11 12 25 16 14 3 25 10 25 15 0 5 11 9 25
9 16 0 25 6 25 15 0 9 9 15 25 15 14 0 25 5 25 10 0 6 7 10 15 10 8 0 15 7 15
15 0 9 9 15 25 15 20 0 25 -5 25 -25 0 -14 -4 -25 -10 -25 -5 0 -10 -18 -10
-40 0 -27 -5 -43 -15 -46 -10 -4 -15 -20 -15 -49 0 -24 -5 -45 -11 -47 -5 -2
-13 -22 -16 -46 -3 -23 -10 -42 -14 -42 -5 0 -9 -16 -9 -35 0 -24 -5 -35 -15
-35 -11 0 -15 -11 -15 -40 0 -22 -4 -40 -9 -40 -5 0 -11 -18 -15 -40 -3 -22
-11 -40 -16 -40 -6 0 -10 -13 -10 -29 0 -29 -27 -93 -42 -99 -5 -2 -8 -16 -8
-32 0 -15 -7 -33 -15 -40 -8 -7 -15 -22 -15 -33 0 -11 -11 -30 -25 -43 -14
-13 -25 -32 -25 -44 0 -11 -7 -20 -15 -20 -9 0 -15 -9 -15 -21 0 -12 -11 -32
-25 -45 -14 -13 -25 -32 -25 -44 0 -11 -5 -20 -11 -20 -14 0 -39 -25 -39 -39
0 -6 -4 -11 -10 -11 -5 0 -12 -11 -16 -25 -3 -14 -10 -25 -15 -25 -5 0 -9 -7
-9 -15 0 -8 -7 -15 -15 -15 -9 0 -15 -9 -15 -25 0 -16 -6 -25 -15 -25 -8 0
-15 -5 -15 -11 0 -6 -15 -25 -34 -42 -18 -18 -36 -42 -40 -54 -4 -13 -12 -23
-17 -23 -5 0 -9 -7 -9 -15 0 -8 -7 -15 -15 -15 -8 0 -15 -5 -15 -11 0 -14 -25
-39 -39 -39 -6 0 -11 -9 -11 -20 0 -11 -22 -42 -50 -69 -27 -27 -50 -54 -50
-60 0 -6 -5 -11 -11 -11 -14 0 -39 -25 -39 -39 0 -6 -7 -11 -15 -11 -9 0 -15
-9 -15 -25 0 -16 -6 -25 -15 -25 -8 0 -15 -6 -15 -13 0 -7 -11 -21 -25 -31
-14 -10 -25 -25 -25 -33 0 -8 -11 -24 -25 -37 -14 -13 -25 -26 -25 -30 0 -4
-6 -14 -12 -21 -31 -34 -38 -45 -43 -67 -4 -14 -17 -37 -31 -53 -27 -32 -31
-55 -9 -55 8 0 15 4 15 10 0 5 11 12 25 16 14 3 25 10 25 14 0 4 11 11 25 14
14 4 25 11 25 16 0 6 9 10 20 10 11 0 20 4 20 10 0 5 11 12 25 16 14 3 25 10
25 15 0 5 11 9 24 9 14 0 31 7 40 15 8 8 24 15 35 15 12 0 21 4 21 9 0 5 14
12 30 16 17 4 30 11 30 16 0 5 11 9 25 9 14 0 25 4 25 9 0 5 11 12 25 15 14 4
25 11 25 16 0 6 11 10 25 10 16 0 25 6 25 15 0 9 9 15 25 15 14 0 25 4 25 9 0
5 11 12 25 15 14 4 25 11 25 16 0 6 7 10 15 10 8 0 15 5 15 10 0 6 6 10 14 10
8 0 21 6 28 14 8 7 24 17 36 20 12 4 22 12 22 17 0 5 7 9 15 9 8 0 15 4 15 9
0 5 11 12 25 15 14 4 25 11 25 16 0 6 7 10 15 10 8 0 15 4 15 10 0 5 11 12 25
16 14 3 25 10 25 15 0 5 7 9 15 9 8 0 15 7 15 15 0 8 5 15 10 15 10 0 22 8 55
38 7 6 16 12 20 12 3 0 16 11 29 25 13 14 28 25 35 25 6 0 11 5 11 10 0 6 33
43 74 83 40 40 77 83 80 95 4 12 12 22 17 22 5 0 9 5 9 11 0 14 25 39 39 39 6
0 11 9 11 20 0 12 11 31 25 44 14 13 25 33 25 45 0 12 6 21 15 21 8 0 15 7 15
15 0 8 4 15 9 15 5 0 12 11 15 25 4 14 11 25 16 25 6 0 10 7 10 15 0 8 4 15 9
15 5 0 13 10 17 23 4 12 17 32 30 44 13 12 24 31 24 43 0 11 4 20 10 20 5 0
12 11 16 25 3 14 10 25 15 25 5 0 9 11 9 25 0 18 5 25 20 25 21 0 60 -33 60
-50 0 -6 11 -21 25 -34 14 -13 25 -28 25 -35 0 -6 5 -11 11 -11 7 0 22 -11 35
-25 13 -14 28 -25 34 -25 6 0 21 -11 34 -25 13 -14 28 -25 35 -25 6 0 11 -7
11 -15 0 -9 9 -15 21 -15 12 0 32 -11 45 -25 13 -14 32 -25 44 -25 11 0 20 -4
20 -10 0 -5 11 -12 25 -16 14 -3 25 -10 25 -15 0 -5 10 -9 23 -9 13 0 32 -7
43 -15 10 -8 29 -15 42 -15 12 0 22 -4 22 -9 0 -5 11 -12 25 -15 14 -4 25 -11
25 -16 0 -6 18 -10 40 -10 22 0 40 -4 40 -10 0 -5 18 -13 40 -16 22 -4 40 -10
40 -15 0 -5 28 -9 63 -9 40 0 70 -5 83 -15 16 -12 72 -14 331 -15 239 0 313
-3 316 -12 4 -10 8 -9 16 2 9 12 13 12 19 3 6 -10 98 -15 373 -19 200 -4 365
-11 367 -15 2 -5 117 -9 255 -9 206 -1 256 -3 271 -15 15 -11 48 -15 123 -15
62 0 103 -4 103 -10 0 -6 33 -10 78 -10 53 0 84 -5 98 -15 13 -10 45 -14 101
-15 45 0 83 -4 85 -10 2 -5 38 -13 81 -16 42 -4 77 -11 77 -15 0 -5 33 -9 74
-9 56 0 75 -4 80 -15 4 -11 22 -15 71 -15 36 0 65 -4 65 -9 0 -5 28 -11 62
-13 35 -3 64 -10 66 -16 2 -8 31 -12 82 -12 43 0 80 -4 82 -10 2 -5 31 -13 66
-16 34 -4 62 -11 62 -15 0 -5 27 -9 59 -9 43 0 60 -4 65 -15 4 -11 20 -15 56
-15 27 0 50 -4 50 -10 0 -5 23 -10 50 -10 36 0 52 -4 56 -15 4 -10 21 -15 54
-15 27 0 50 -5 52 -11 2 -6 25 -13 51 -16 26 -3 47 -10 47 -14 0 -5 16 -9 36
-9 19 0 42 -7 50 -15 9 -8 33 -15 55 -15 21 0 39 -4 39 -10 0 -5 13 -10 29
-10 16 0 36 -7 45 -15 8 -8 30 -15 49 -15 22 0 37 -6 41 -15 3 -9 19 -15 41
-15 19 0 35 -4 35 -10 0 -5 11 -10 24 -10 13 0 29 -7 36 -15 7 -8 25 -15 41
-15 16 0 29 -4 29 -10 0 -5 18 -13 40 -16 22 -4 40 -10 40 -15 0 -5 11 -9 25
-9 14 0 25 -4 25 -10 0 -5 18 -13 40 -16 22 -4 40 -10 40 -15 0 -5 11 -9 24
-9 13 0 26 -7 30 -15 3 -9 19 -15 41 -15 19 0 35 -4 35 -10 0 -5 11 -12 25
-16 14 -3 25 -10 25 -15 0 -5 14 -9 30 -9 17 0 30 -4 30 -10 0 -5 11 -12 25
-16 14 -3 25 -10 25 -15 0 -5 11 -9 24 -9 14 0 31 -7 40 -15 8 -8 26 -15 40
-15 14 0 26 -4 26 -10 0 -5 11 -12 25 -16 14 -3 25 -10 25 -15 0 -5 11 -9 25
-9 16 0 25 -6 25 -15 0 -9 9 -15 25 -15 14 0 25 -4 25 -10 0 -5 11 -10 25 -10
14 0 28 -7 31 -15 4 -8 17 -15 30 -15 13 0 24 -4 24 -9 0 -5 11 -12 25 -15 14
-4 25 -11 25 -16 0 -6 9 -10 21 -10 11 0 27 -7 35 -15 9 -8 24 -15 35 -15 10
0 19 -4 19 -10 0 -5 11 -10 24 -10 14 0 31 -7 40 -15 8 -8 23 -15 34 -15 11 0
22 -7 26 -15 3 -8 15 -15 26 -15 11 0 20 -4 20 -10 0 -5 6 -10 14 -10 7 0 19
-7 26 -15 7 -8 21 -15 31 -15 11 0 19 -4 19 -10 0 -5 9 -10 20 -10 11 0 23 -7
26 -15 4 -8 17 -15 30 -15 15 0 24 -6 24 -15 0 -9 9 -15 25 -15 14 0 25 -4 25
-10 0 -5 7 -10 15 -10 8 0 15 -7 15 -15 0 -9 9 -15 25 -15 14 0 25 -4 25 -10
0 -5 11 -12 25 -16 14 -3 25 -10 25 -15 0 -5 7 -9 15 -9 8 0 15 -4 15 -10 0
-5 11 -12 25 -16 14 -3 25 -10 25 -15 0 -5 7 -9 15 -9 8 0 15 -7 15 -15 0 -9
9 -15 21 -15 12 0 32 -11 45 -25 13 -14 29 -25 37 -25 8 0 23 -11 33 -25 10
-14 24 -25 31 -25 7 0 13 -4 13 -9 0 -5 10 -13 22 -17 12 -3 39 -24 62 -45 22
-22 46 -39 53 -39 7 0 13 -4 13 -10 0 -5 7 -10 15 -10 8 0 15 -7 15 -15 0 -8
7 -15 15 -15 8 0 15 -5 15 -11 0 -14 25 -39 39 -39 6 0 11 -7 11 -15 0 -8 5
-15 10 -15 10 0 22 -8 55 -37 7 -7 18 -13 24 -13 6 0 11 -7 11 -15 0 -8 5 -15
11 -15 14 0 39 -25 39 -39 0 -6 5 -11 10 -11 14 0 330 -317 330 -330 0 -6 7
-10 15 -10 9 0 15 -9 15 -25 0 -14 5 -25 11 -25 14 0 39 -25 39 -39 0 -6 7
-11 15 -11 8 0 15 -5 15 -11 0 -7 11 -22 25 -35 14 -13 25 -28 25 -34 0 -6 11
-21 25 -34 14 -13 25 -28 25 -35 0 -6 7 -11 15 -11 9 0 15 -9 15 -21 0 -12 11
-32 25 -45 14 -13 25 -30 25 -39 0 -9 7 -18 15 -21 8 -4 15 -12 15 -20 0 -8 3
-14 8 -14 9 0 42 -58 42 -75 0 -7 7 -15 15 -19 8 -3 15 -12 15 -21 0 -8 5 -15
10 -15 6 0 10 -11 10 -25 0 -16 6 -25 15 -25 9 0 15 -9 15 -25 0 -14 4 -25 10
-25 5 0 12 -11 16 -25 3 -14 10 -25 15 -25 5 0 9 -7 9 -15 0 -8 4 -15 10 -15
5 0 12 -11 16 -25 3 -14 10 -25 15 -25 5 0 9 -15 9 -34 0 -21 6 -36 15 -40 8
-3 15 -17 15 -31 0 -14 5 -25 10 -25 6 0 10 -18 10 -39 0 -22 7 -46 15 -55 8
-8 15 -32 15 -54 0 -22 5 -42 11 -44 6 -2 14 -36 17 -76 2 -40 9 -72 13 -72 5
0 9 -27 9 -60 0 -33 7 -78 16 -101 15 -35 15 -49 5 -93 -7 -28 -15 -99 -18
-158 -3 -60 -10 -108 -14 -108 -5 0 -9 -18 -9 -39 0 -22 -7 -46 -15 -55 -11
-11 -15 -39 -15 -115 0 -59 4 -101 10 -101 5 0 13 -12 16 -27 7 -26 13 -36 42
-68 6 -7 12 -18 12 -24 0 -6 11 -11 25 -11 16 0 25 -6 25 -15 0 -9 9 -15 25
-15 14 0 25 -4 25 -10 0 -5 18 -13 40 -16 22 -4 40 -10 40 -15 0 -5 10 -9 23
-9 12 0 31 -7 41 -15 11 -8 30 -15 43 -15 13 0 23 -4 23 -9 0 -5 11 -12 25
-15 14 -4 25 -11 25 -16 0 -6 11 -10 24 -10 13 0 26 -7 30 -15 3 -8 15 -15 26
-15 11 0 20 -4 20 -10 0 -5 9 -10 19 -10 11 0 26 -7 35 -15 8 -8 19 -15 25
-15 6 0 11 -4 11 -10 0 -5 9 -10 20 -10 11 0 23 -7 26 -15 4 -8 12 -15 20 -15
8 0 14 -4 14 -10 0 -5 10 -12 23 -15 13 -4 31 -17 41 -31 11 -13 25 -24 33
-24 8 0 24 -11 37 -25 13 -14 28 -25 35 -25 6 0 11 -5 11 -11 0 -14 25 -39 39
-39 6 0 11 -7 11 -15 0 -8 5 -15 10 -15 10 0 22 -8 55 -37 7 -7 18 -13 24 -13
6 0 11 -7 11 -15 0 -8 7 -15 15 -15 8 0 15 -5 15 -11 0 -14 25 -39 39 -39 6 0
11 -5 11 -10 0 -10 8 -22 38 -55 6 -7 12 -18 12 -24 0 -6 7 -11 15 -11 8 0 15
-5 15 -10 0 -6 18 -30 40 -52 22 -23 40 -48 40 -55 0 -7 5 -13 10 -13 6 0 10
-7 10 -15 0 -8 7 -15 15 -15 8 0 15 -7 15 -15 0 -8 4 -15 10 -15 5 0 12 -10
15 -23 4 -13 17 -31 31 -41 13 -11 24 -27 24 -37 0 -11 5 -19 10 -19 6 0 10
-7 10 -15 0 -8 7 -15 15 -15 8 0 15 -7 15 -15 0 -8 5 -15 10 -15 6 0 10 -6 10
-14 0 -8 6 -21 14 -28 7 -8 17 -24 20 -36 4 -12 12 -22 17 -22 5 0 9 -9 9 -20
0 -12 11 -31 25 -44 14 -14 25 -34 25 -50 0 -14 4 -26 10 -26 5 0 12 -11 16
-25 3 -14 10 -25 15 -25 5 0 9 -9 9 -21 0 -11 7 -27 15 -35 8 -9 15 -26 15
-40 0 -13 4 -24 9 -24 5 0 12 -13 16 -30 4 -16 11 -30 16 -30 5 0 9 -11 9 -25
0 -16 6 -25 15 -25 11 0 15 -11 15 -40 0 -22 5 -40 10 -40 6 0 10 -11 10 -25
0 -16 6 -25 15 -25 11 0 15 -11 15 -40 0 -22 4 -40 10 -40 5 0 13 -18 16 -40
4 -22 10 -40 15 -40 5 0 9 -18 9 -40 0 -29 4 -40 15 -40 11 0 15 -11 15 -40 0
-22 5 -40 10 -40 6 0 10 -16 10 -35 0 -24 5 -35 15 -35 12 0 15 -13 15 -55 0
-30 4 -55 9 -55 4 0 11 -27 15 -60 4 -33 11 -60 16 -60 6 0 10 -23 10 -51 0
-31 6 -56 15 -65 10 -10 15 -35 15 -70 0 -30 5 -54 10 -54 6 0 10 -24 10 -54
0 -35 5 -60 15 -70 11 -11 15 -37 15 -99 0 -55 4 -87 11 -89 8 -3 14 -42 17
-106 2 -56 9 -102 13 -102 5 0 9 -38 9 -85 0 -54 6 -99 15 -122 8 -19 15 -62
15 -94 0 -33 4 -59 9 -59 5 0 11 -30 13 -67 2 -39 9 -68 16 -71 8 -2 12 -30
12 -82 0 -45 4 -80 10 -82 6 -2 13 -36 17 -76 3 -39 10 -72 14 -72 5 0 9 -18
9 -40 0 -22 -4 -40 -10 -40 -6 0 -10 -28 -10 -64 0 -44 -5 -69 -15 -80 -9 -9
-15 -34 -15 -65 0 -39 -4 -51 -15 -51 -11 0 -15 -11 -15 -40 0 -22 -4 -40 -9
-40 -5 0 -12 -11 -15 -25 -4 -14 -13 -25 -20 -25 -8 0 -31 -16 -52 -35 -43
-40 -50 -42 -59 -15 -3 11 -11 20 -16 20 -5 0 -9 7 -9 15 0 8 -4 15 -9 15 -5
0 -12 11 -15 25 -4 14 -11 25 -16 25 -6 0 -10 11 -10 25 0 14 -4 25 -9 25 -5
0 -12 11 -15 25 -4 14 -11 25 -16 25 -6 0 -10 7 -10 15 0 9 -7 18 -15 21 -8 4
-15 15 -15 25 0 10 -4 19 -10 19 -5 0 -10 7 -10 15 0 9 -7 18 -15 21 -8 4 -15
15 -15 25 0 10 -7 19 -15 19 -9 0 -15 9 -15 25 0 14 -4 25 -10 25 -5 0 -10 7
-10 15 0 8 -7 15 -15 15 -9 0 -15 9 -15 21 0 12 -11 32 -25 45 -14 13 -25 30
-25 39 0 9 -7 23 -15 31 -8 9 -15 24 -15 35 0 10 -4 19 -10 19 -5 0 -10 11
-10 24 0 14 -7 31 -15 40 -8 8 -15 22 -15 30 0 9 -16 32 -36 51 -34 33 -40 35
-104 35 -48 0 -73 -5 -84 -15 -8 -8 -26 -15 -40 -15 -14 0 -26 -4 -26 -9 0 -5
-10 -13 -22 -17 -13 -4 -33 -17 -45 -30 -12 -13 -31 -24 -43 -24 -11 0 -20 -4
-20 -10 0 -5 -11 -12 -25 -16 -14 -3 -25 -10 -25 -15 0 -5 -7 -9 -15 -9 -8 0
-15 -4 -15 -10 0 -5 -11 -12 -25 -16 -14 -3 -25 -10 -25 -15 0 -5 -6 -9 -13
-9 -7 0 -24 -11 -38 -24 -14 -13 -35 -27 -47 -30 -12 -4 -22 -12 -22 -17 0 -5
-6 -9 -14 -9 -8 0 -16 -7 -20 -15 -3 -8 -15 -15 -26 -15 -11 0 -20 -4 -20 -10
0 -5 -7 -10 -15 -10 -8 0 -15 -7 -15 -15 0 -9 -9 -15 -25 -15 -14 0 -25 -4
-25 -10 0 -5 -7 -10 -15 -10 -8 0 -15 -7 -15 -15 0 -9 -9 -15 -25 -15 -16 0
-25 -6 -25 -15 0 -8 -7 -15 -15 -15 -8 0 -15 -4 -15 -10 0 -5 -11 -10 -25 -10
-16 0 -25 -6 -25 -15 0 -8 -9 -15 -20 -15 -12 0 -31 -11 -43 -24 -12 -13 -32
-26 -44 -30 -13 -4 -23 -12 -23 -17 0 -5 -5 -9 -11 -9 -14 0 -39 -25 -39 -39
0 -6 -7 -11 -15 -11 -8 0 -15 -4 -15 -10 0 -5 -11 -12 -25 -16 -14 -3 -25 -10
-25 -15 0 -5 -7 -9 -15 -9 -8 0 -15 -5 -15 -11 0 -14 -25 -39 -39 -39 -6 0
-11 -7 -11 -15 0 -8 -5 -15 -10 -15 -10 0 -22 -8 -55 -37 -7 -7 -18 -13 -24
-13 -6 0 -11 -7 -11 -15 0 -8 -7 -15 -15 -15 -8 0 -15 -5 -15 -11 0 -14 -25
-39 -39 -39 -6 0 -11 -7 -11 -15 0 -8 -7 -15 -15 -15 -8 0 -15 -4 -15 -9 0 -5
-11 -12 -25 -15 -14 -4 -25 -11 -25 -16 0 -6 -7 -10 -15 -10 -8 0 -15 -5 -15
-11 0 -6 -6 -17 -14 -25 -8 -8 -19 -14 -25 -14 -6 0 -11 -7 -11 -15 0 -8 -5
-15 -10 -15 -10 0 -22 -8 -55 -37 -7 -7 -17 -13 -21 -13 -4 0 -17 -11 -30 -25
-13 -14 -32 -25 -44 -25 -11 0 -20 -7 -20 -15 0 -8 -7 -15 -16 -15 -15 0 -16
10 -10 77 3 43 11 80 16 81 6 2 10 28 10 58 0 30 4 54 9 54 5 0 12 20 15 45 4
25 11 45 17 45 5 0 9 14 9 30 0 20 5 30 15 30 9 0 15 9 15 25 0 14 5 25 10 25
6 0 10 7 10 15 0 8 7 15 15 15 9 0 15 9 15 25 0 16 6 25 15 25 8 0 15 5 15 10
0 6 11 23 25 38 14 15 25 30 25 35 0 4 11 18 25 31 14 13 25 28 25 35 0 6 5
11 11 11 14 0 39 25 39 39 0 6 7 11 15 11 8 0 15 5 15 11 0 14 25 39 39 39 6
0 11 7 11 15 0 8 5 15 11 15 14 0 39 25 39 39 0 6 7 11 15 11 8 0 15 5 15 11
0 14 25 39 39 39 6 0 11 7 11 15 0 8 5 15 11 15 14 0 39 25 39 39 0 6 7 11 15
11 8 0 15 4 15 9 0 5 9 13 21 16 31 10 59 37 59 57 0 10 4 18 9 18 5 0 12 11
15 25 4 14 11 25 16 25 6 0 10 7 10 15 0 8 7 15 15 15 16 0 19 9 9 34 -4 12
-20 16 -55 16 -27 0 -49 -4 -49 -10 0 -6 -28 -10 -65 -10 -51 0 -65 -3 -65
-15 0 -11 -11 -15 -40 -15 -22 0 -40 -4 -40 -10 0 -5 -16 -10 -35 -10 -22 0
-38 -6 -41 -15 -4 -9 -19 -15 -40 -15 -19 0 -34 -4 -34 -10 0 -5 -18 -13 -40
-16 -22 -4 -40 -10 -40 -15 0 -5 -11 -9 -25 -9 -14 0 -28 -7 -31 -15 -4 -9
-19 -15 -40 -15 -19 0 -34 -4 -34 -10 0 -5 -11 -10 -25 -10 -14 0 -28 -7 -31
-15 -4 -9 -19 -15 -40 -15 -24 0 -34 -5 -34 -15 0 -10 -10 -15 -30 -15 -16 0
-30 -4 -30 -10 0 -5 -11 -10 -25 -10 -16 0 -25 -6 -25 -15 0 -10 -11 -15 -35
-15 -19 0 -35 -4 -35 -9 0 -5 -13 -12 -30 -16 -16 -4 -30 -11 -30 -16 0 -5
-11 -9 -25 -9 -14 0 -25 -4 -25 -10 0 -5 -18 -13 -40 -16 -22 -4 -40 -10 -40
-15 0 -5 -11 -9 -25 -9 -16 0 -25 -6 -25 -15 0 -10 -10 -15 -30 -15 -16 0 -30
-4 -30 -9 0 -5 -16 -12 -35 -15 -19 -4 -35 -11 -35 -16 0 -6 -11 -10 -24 -10
-13 0 -26 -7 -30 -15 -3 -8 -17 -15 -31 -15 -14 0 -25 -4 -25 -10 0 -5 -11
-10 -24 -10 -14 0 -31 -7 -40 -15 -8 -8 -26 -15 -40 -15 -14 0 -26 -4 -26 -9
0 -5 -11 -12 -25 -15 -14 -4 -25 -11 -25 -16 0 -6 -11 -10 -24 -10 -14 0 -31
-7 -40 -15 -8 -8 -26 -15 -40 -15 -14 0 -26 -4 -26 -10 0 -5 -11 -10 -24 -10
-14 0 -31 -7 -40 -15 -8 -8 -24 -15 -36 -15 -12 0 -28 -7 -36 -15 -9 -8 -26
-15 -40 -15 -13 0 -24 -4 -24 -10 0 -5 -13 -10 -30 -10 -16 0 -30 -4 -30 -10
0 -5 -11 -12 -25 -16 -14 -3 -25 -10 -25 -15 0 -5 -11 -9 -25 -9 -18 0 -25 5
-25 20 0 11 5 20 10 20 6 0 10 14 10 30 0 20 5 30 15 30 9 0 15 9 15 25 0 14
4 25 9 25 5 0 12 11 15 25 4 14 11 25 16 25 6 0 10 7 10 15 0 8 7 15 15 15 8
0 15 7 15 15 0 8 4 15 9 15 5 0 13 10 17 22 7 22 129 148 144 148 5 0 22 13
38 30 17 16 35 30 41 30 6 0 11 7 11 15 0 8 7 15 15 15 8 0 15 5 15 10 0 6 9
10 20 10 11 0 23 7 26 15 4 8 10 15 15 15 6 0 17 6 25 13 8 6 20 17 27 22 7 6
29 19 50 30 20 11 37 23 37 26 0 4 11 10 25 13 14 4 25 11 25 16 0 6 9 10 20
10 11 0 20 4 20 10 0 5 11 12 25 16 14 3 25 10 25 15 0 5 11 9 24 9 14 0 31 7
40 15 8 8 24 15 35 15 12 0 21 5 21 10 0 6 13 10 29 10 16 0 36 7 45 15 8 9
33 15 59 15 25 0 47 5 49 11 2 6 27 14 56 17 29 2 52 8 52 13 0 5 18 9 40 9
29 0 40 4 40 15 0 11 12 15 50 15 28 0 50 4 50 9 0 5 25 13 55 16 30 4 55 11
55 16 0 5 23 9 50 9 38 0 50 4 50 15 0 11 11 15 40 15 22 0 40 5 40 10 0 6 11
10 24 10 13 0 26 7 30 15 3 9 19 15 41 15 19 0 35 4 35 10 0 5 11 12 25 16 14
3 25 10 25 15 0 5 11 9 24 9 13 0 26 7 30 15 3 8 15 15 26 15 11 0 20 5 20 10
0 6 7 10 15 10 9 0 18 7 21 15 4 8 15 15 25 15 10 0 19 5 19 10 0 6 7 10 15
10 8 0 15 7 15 15 0 8 7 15 15 15 8 0 15 4 15 10 0 5 11 12 25 16 14 3 25 11
25 16 0 13 26 38 39 38 6 0 11 5 11 11 0 11 24 39 34 39 10 0 96 88 96 99 0 6
7 11 15 11 8 0 15 5 15 10 0 10 8 22 38 55 6 7 12 22 12 33 0 11 7 22 15 26 8
3 15 17 15 31 0 14 5 25 10 25 6 0 10 33 10 80 0 47 -4 80 -10 80 -5 0 -10 11
-10 24 0 14 -7 31 -15 40 -8 8 -15 19 -15 25 0 6 -9 11 -20 11 -12 0 -31 11
-44 25 -13 14 -28 25 -35 25 -6 0 -11 4 -11 10 0 5 -11 12 -25 16 -14 3 -25
10 -25 15 0 5 -9 9 -20 9 -11 0 -23 7 -26 15 -4 8 -16 15 -29 15 -13 0 -25 7
-29 15 -3 8 -15 15 -26 15 -11 0 -20 5 -20 10 0 6 -13 10 -29 10 -16 0 -36 7
-45 15 -8 8 -24 15 -35 15 -12 0 -21 5 -21 10 0 6 -11 10 -25 10 -14 0 -28 7
-31 15 -4 9 -19 15 -39 15 -20 0 -35 6 -39 15 -3 9 -19 15 -41 15 -19 0 -35 5
-35 10 0 6 -13 10 -29 10 -16 0 -36 7 -45 15 -8 8 -31 15 -50 15 -20 0 -36 4
-36 10 0 5 -16 12 -35 16 -19 3 -35 10 -35 15 0 5 -18 9 -39 9 -25 0 -41 5
-45 15 -3 8 -17 15 -31 15 -14 0 -25 5 -25 10 0 6 -18 10 -39 10 -22 0 -46 7
-55 15 -8 8 -31 15 -50 15 -20 0 -36 4 -36 10 0 5 -18 13 -40 16 -22 4 -40 10
-40 15 0 5 -18 9 -40 9 -29 0 -40 4 -40 15 0 10 -11 15 -35 15 -19 0 -35 5
-35 10 0 6 -18 10 -40 10 -29 0 -40 4 -40 15 0 11 -11 15 -40 15 -22 0 -40 4
-40 10 0 5 -18 13 -40 16 -22 4 -40 10 -40 15 0 5 -10 9 -23 9 -13 0 -32 7
-43 15 -10 8 -29 15 -41 15 -13 0 -23 5 -23 10 0 6 -11 10 -24 10 -14 0 -31 7
-40 15 -8 8 -26 15 -40 15 -14 0 -26 4 -26 9 0 5 -11 12 -25 15 -14 4 -25 11
-25 16 0 6 -18 10 -40 10 -29 0 -40 4 -40 15 0 9 -9 15 -25 15 -14 0 -25 4
-25 9 0 5 -11 12 -25 15 -14 4 -25 11 -25 16 0 6 -11 10 -24 10 -13 0 -26 7
-30 15 -3 8 -15 15 -26 15 -11 0 -20 5 -20 10 0 6 -9 10 -20 10 -11 0 -20 4
-20 10 0 5 -11 12 -25 16 -14 3 -25 10 -25 14 0 4 -11 11 -25 14 -14 4 -25 11
-25 16 0 6 -7 10 -15 10 -8 0 -15 4 -15 9 0 5 -10 13 -22 17 -13 4 -33 17 -45
30 -12 13 -29 24 -38 24 -8 0 -15 5 -15 10 0 6 -7 10 -15 10 -8 0 -15 7 -15
15 0 8 -9 15 -20 15 -12 0 -31 11 -44 25 -13 14 -28 25 -35 25 -6 0 -11 7 -11
15 0 9 -9 15 -25 15 -14 0 -25 5 -25 11 0 14 -25 39 -39 39 -6 0 -11 7 -11 15
0 8 -7 15 -15 15 -8 0 -15 4 -15 9 0 5 -9 12 -19 16 -11 3 -47 33 -81 65 -33
33 -65 60 -70 60 -6 0 -10 7 -10 15 0 8 -7 15 -15 15 -8 0 -15 5 -15 11 0 6
-6 17 -14 25 -8 8 -19 14 -25 14 -6 0 -11 5 -11 11 0 14 -25 39 -39 39 -6 0
-11 5 -11 10 0 6 -18 30 -40 52 -22 23 -40 48 -40 55 0 7 -4 13 -10 13 -5 0
-10 7 -10 15 0 8 -7 15 -15 15 -8 0 -15 5 -15 11 0 13 -25 39 -38 39 -5 0 -13
11 -16 25 -4 14 -11 25 -16 25 -6 0 -10 5 -10 11 0 7 -11 22 -25 35 -14 13
-25 32 -25 44 0 11 -7 20 -15 20 -8 0 -15 7 -15 15 0 8 -4 15 -10 15 -5 0 -10
11 -10 25 0 16 -6 25 -15 25 -8 0 -15 7 -15 15 0 8 -4 15 -10 15 -5 0 -10 9
-10 20 0 11 -7 23 -15 26 -8 4 -15 17 -15 30 0 15 -6 24 -15 24 -9 0 -15 9
-15 25 0 14 -4 25 -10 25 -5 0 -10 5 -10 11 0 6 -7 17 -15 25 -8 9 -15 26 -15
40 0 13 -4 24 -9 24 -5 0 -12 11 -15 25 -4 14 -11 25 -16 25 -6 0 -10 11 -10
24 0 13 -7 26 -15 30 -8 3 -15 17 -15 31 0 14 -4 25 -10 25 -5 0 -10 11 -10
24 0 13 -7 29 -15 36 -8 7 -15 25 -15 41 0 16 -4 29 -9 29 -5 0 -11 18 -15 40
-3 22 -11 40 -16 40 -6 0 -10 22 -10 49 0 29 -5 51 -12 53 -6 2 -13 31 -16 66
-2 34 -8 62 -13 62 -5 0 -9 26 -9 59 0 32 -7 78 -15 101 -18 51 -20 221 -3
253 6 12 13 66 16 119 3 54 9 98 13 98 5 0 9 16 9 35 0 20 7 52 15 72 8 19 15
44 15 54 0 11 4 19 10 19 5 0 13 18 16 40 4 22 10 40 15 40 5 0 9 11 9 25 0
16 6 25 15 25 8 0 15 7 15 15 0 8 5 15 10 15 6 0 10 11 10 25 0 16 6 25 15 25
8 0 15 7 15 15 0 8 7 15 15 15 8 0 15 9 15 20 0 11 5 20 10 20 6 0 10 4 10 10
0 13 216 230 229 230 6 0 11 7 11 15 0 9 9 15 25 15 16 0 25 6 25 15 0 8 7 15
15 15 8 0 15 5 15 10 0 6 7 10 15 10 9 0 18 7 21 15 4 8 11 15 16 15 6 0 21
11 34 25 13 14 28 25 34 25 5 0 10 5 10 11 0 15 22 35 48 43 12 4 22 12 22 17
0 5 7 9 15 9 8 0 15 5 15 11 0 13 25 39 38 39 6 0 12 7 16 15 3 8 15 15 26 15
11 0 20 7 20 15 0 8 19 33 41 55 23 23 40 43 37 45 -2 2 -56 7 -119 11 -98 6
-122 4 -149 -10 -21 -10 -58 -16 -102 -16 -37 0 -68 -4 -68 -9 0 -5 -36 -12
-80 -16 -44 -4 -80 -11 -80 -16 0 -5 -22 -9 -49 -9 -34 0 -51 -4 -55 -15 -3
-9 -19 -15 -41 -15 -19 0 -35 -4 -35 -9 0 -5 -18 -11 -40 -15 -22 -3 -40 -11
-40 -16 0 -6 -11 -10 -24 -10 -13 0 -26 -7 -30 -15 -3 -8 -15 -15 -26 -15 -11
0 -20 -4 -20 -10 0 -5 -11 -10 -24 -10 -13 0 -26 -7 -30 -15 -3 -8 -15 -15
-26 -15 -11 0 -20 -4 -20 -10 0 -5 -7 -10 -15 -10 -8 0 -15 -7 -15 -15 0 -8
-9 -15 -20 -15 -12 0 -31 -11 -44 -25 -13 -14 -28 -25 -35 -25 -6 0 -11 -7
-11 -15 0 -8 -5 -15 -10 -15 -10 0 -22 -8 -55 -37 -7 -7 -18 -13 -24 -13 -6 0
-11 -7 -11 -15 0 -8 -7 -15 -15 -15 -8 0 -15 -5 -15 -10 0 -10 -8 -22 -37 -55
-7 -7 -13 -18 -13 -24 0 -6 -7 -11 -15 -11 -8 0 -15 -7 -15 -15 0 -8 -4 -15
-9 -15 -5 0 -12 -8 -15 -17 -13 -33 -31 -63 -38 -63 -5 0 -8 -9 -8 -20 0 -11
-7 -23 -15 -26 -9 -4 -15 -19 -15 -39 0 -20 -6 -35 -15 -39 -10 -3 -15 -19
-15 -46 0 -22 -4 -40 -10 -40 -5 0 -10 -26 -10 -57 -1 -35 -6 -66 -15 -77 -20
-26 -22 -495 -3 -514 7 -7 14 -52 16 -112 3 -55 8 -100 12 -100 4 0 10 -32 12
-72 2 -44 9 -73 16 -76 16 -5 17 -289 1 -294 -6 -2 -13 -25 -16 -51 -3 -26
-10 -47 -14 -47 -5 0 -9 -11 -9 -25 0 -16 -6 -25 -15 -25 -9 0 -15 -9 -15 -25
0 -14 -4 -25 -10 -25 -5 0 -10 -7 -10 -15 0 -8 -7 -15 -15 -15 -8 0 -15 -5
-15 -11 0 -6 -12 -24 -27 -39 -42 -44 -53 -58 -53 -68 0 -6 -11 -13 -25 -16
-14 -4 -25 -11 -25 -16 0 -6 -5 -10 -11 -10 -14 0 -39 -25 -39 -39 0 -6 -9
-11 -20 -11 -12 0 -31 -11 -44 -25 -13 -14 -33 -25 -45 -25 -12 0 -24 -7 -27
-15 -4 -8 -17 -15 -30 -15 -13 0 -24 -4 -24 -10 0 -5 -16 -12 -35 -16 -19 -3
-35 -10 -35 -15 0 -5 -13 -9 -29 -9 -16 0 -36 -7 -45 -15 -8 -8 -31 -15 -50
-15 -20 0 -36 -4 -36 -9 0 -4 -38 -11 -84 -15 -47 -3 -96 -10 -111 -16 -20 -8
-29 -6 -45 10 -18 18 -20 34 -20 138 -1 87 -4 122 -15 136 -9 11 -15 41 -15
68 0 26 -4 48 -10 48 -5 0 -10 18 -10 40 0 27 -5 43 -15 46 -10 4 -15 20 -15
51 0 26 -6 51 -15 59 -8 9 -15 24 -15 35 0 10 -4 19 -10 19 -5 0 -10 14 -10
31 0 17 -7 37 -15 45 -8 9 -15 29 -15 45 0 16 -4 29 -10 29 -5 0 -10 11 -10
25 0 14 -7 28 -15 31 -9 4 -15 19 -15 36 0 16 -7 36 -15 44 -8 9 -15 24 -15
35 0 10 -4 19 -10 19 -5 0 -10 11 -10 24 0 14 -7 31 -15 40 -8 8 -15 24 -15
35 0 12 -4 21 -10 21 -5 0 -10 11 -10 25 0 16 -6 25 -15 25 -10 0 -15 10 -15
30 0 20 -5 30 -15 30 -9 0 -15 9 -15 25 0 14 -4 25 -10 25 -5 0 -10 11 -10 25
0 16 -6 25 -15 25 -9 0 -15 9 -15 25 0 14 -4 25 -10 25 -5 0 -12 11 -16 25 -3
14 -10 25 -15 25 -5 0 -9 7 -9 15 0 8 -4 15 -10 15 -5 0 -10 6 -10 14 0 8 -6
21 -14 28 -7 8 -17 24 -20 36 -4 12 -12 22 -17 22 -5 0 -9 7 -9 15 0 8 -4 15
-9 15 -5 0 -12 11 -15 25 -4 14 -11 25 -16 25 -6 0 -10 7 -10 15 0 8 -4 15
-10 15 -5 0 -12 11 -16 25 -3 14 -10 25 -15 25 -5 0 -9 7 -9 15 0 8 -7 15 -15
15 -9 0 -15 9 -15 21 0 12 -11 32 -25 45 -14 13 -25 27 -25 31 0 5 -11 20 -25
35 -14 15 -25 32 -25 38 0 5 -7 10 -15 10 -9 0 -15 9 -15 25 0 16 -6 25 -15
25 -8 0 -15 5 -15 11 0 7 -16 26 -35 45 -19 18 -35 37 -35 43 0 6 -7 11 -15
11 -8 0 -15 5 -15 10 0 12 -10 25 -52 70 -16 15 -28 33 -28 39 0 6 -5 11 -11
11 -14 0 -39 25 -39 39 0 6 -5 11 -11 11 -14 0 -39 25 -39 39 0 6 -7 11 -15
11 -8 0 -15 7 -15 15 0 8 -5 15 -11 15 -14 0 -39 25 -39 39 0 6 -5 11 -11 11
-6 0 -28 18 -50 40 -22 22 -44 40 -49 40 -5 0 -39 29 -75 65 -36 36 -70 65
-75 65 -6 0 -21 11 -34 25 -13 14 -28 25 -35 25 -6 0 -11 7 -11 15 0 8 -5 15
-10 15 -10 0 -22 8 -55 38 -7 6 -18 12 -24 12 -6 0 -11 5 -11 10 0 6 -7 10
-15 10 -8 0 -15 7 -15 15 0 8 -7 15 -15 15 -8 0 -15 4 -15 9 0 5 -10 13 -22
17 -13 4 -33 17 -45 30 -12 13 -29 24 -38 24 -8 0 -15 5 -15 10 0 6 -7 10 -15
10 -9 0 -18 7 -21 15 -4 8 -15 15 -25 15 -11 0 -22 7 -25 15 -4 8 -15 15 -25
15 -10 0 -19 3 -19 8 0 4 -20 16 -45 27 -25 11 -45 22 -45 26 0 4 -11 10 -25
13 -14 4 -25 11 -25 16 0 6 -11 10 -25 10 -16 0 -25 6 -25 15 0 9 -9 15 -25
15 -14 0 -25 5 -25 10 0 6 -11 10 -25 10 -14 0 -28 7 -31 15 -4 8 -15 15 -26
15 -11 0 -26 7 -34 15 -9 8 -26 15 -40 15 -13 0 -24 5 -24 10 0 6 -13 10 -30
10 -20 0 -30 5 -30 15 0 10 -11 15 -35 15 -19 0 -35 5 -35 10 0 6 -13 10 -29
10 -16 0 -36 7 -45 15 -9 9 -33 15 -61 15 -28 0 -52 6 -61 15 -10 9 -34 15
-65 15 -27 0 -49 5 -49 10 0 6 -15 10 -34 10 -19 0 -48 8 -65 17 -32 19 -57 9
-28 -11 9 -7 17 -18 17 -25 0 -6 11 -11 25 -11 14 0 25 -4 25 -10 0 -5 -18
-10 -40 -10 -46 0 -50 -10 -15 -36 13 -10 27 -31 30 -46 4 -15 11 -28 16 -28
5 0 9 -6 9 -14 0 -18 63 -86 79 -86 7 0 22 -11 35 -25 13 -14 27 -25 31 -25 4
0 18 -11 31 -25 13 -14 30 -25 39 -25 8 0 15 -7 15 -15 0 -8 7 -15 15 -15 8 0
15 -4 15 -9 0 -5 11 -12 25 -15 14 -4 25 -11 25 -16 0 -6 7 -10 15 -10 8 0 15
-7 15 -15 0 -8 5 -15 10 -15 6 0 23 -11 38 -25 15 -14 30 -25 35 -25 4 0 18
-11 31 -25 13 -14 28 -25 35 -25 6 0 11 -5 11 -11 0 -14 25 -39 39 -39 6 0 11
-7 11 -15 0 -8 5 -15 11 -15 14 0 39 -25 39 -39 0 -6 7 -11 15 -11 8 0 15 -5
15 -11 0 -14 25 -39 39 -39 6 0 11 -7 11 -15 0 -8 7 -15 15 -15 8 0 15 -5 15
-11 0 -14 25 -39 39 -39 6 0 11 -5 11 -11 0 -14 25 -39 39 -39 6 0 11 -7 11
-15 0 -8 7 -15 15 -15 8 0 15 -5 15 -11 0 -14 25 -39 39 -39 6 0 11 -7 11 -15
0 -8 5 -15 11 -15 14 0 39 -25 39 -39 0 -6 7 -11 15 -11 8 0 32 -18 54 -40 22
-22 44 -40 50 -40 6 0 11 -5 11 -11 0 -14 25 -39 39 -39 6 0 11 -5 11 -11 0
-14 55 -69 69 -69 6 0 11 -5 11 -11 0 -14 25 -39 39 -39 6 0 11 -7 11 -15 0
-8 7 -15 15 -15 8 0 15 -5 15 -10 0 -10 8 -22 38 -55 6 -7 12 -18 12 -24 0 -6
5 -11 11 -11 14 0 39 -25 39 -39 0 -6 7 -11 15 -11 8 0 15 -5 15 -11 0 -7 15
-26 34 -43 18 -18 37 -42 40 -54 4 -12 12 -22 17 -22 5 0 9 -7 9 -15 0 -8 7
-15 15 -15 8 0 15 -5 15 -11 0 -14 25 -39 39 -39 6 0 11 -7 11 -15 0 -8 4 -15
10 -15 5 0 12 -11 16 -25 3 -14 10 -25 15 -25 5 0 9 -7 9 -15 0 -8 7 -15 15
-15 8 0 15 -5 15 -10 0 -10 8 -22 38 -55 6 -7 12 -18 12 -24 0 -6 7 -11 15
-11 9 0 15 -9 15 -25 0 -14 5 -25 10 -25 6 0 10 -7 10 -15 0 -8 7 -15 15 -15
8 0 15 -7 15 -15 0 -8 4 -15 10 -15 5 0 12 -11 16 -25 3 -14 10 -25 15 -25 5
0 9 -7 9 -15 0 -8 4 -15 9 -15 5 0 13 -10 17 -22 4 -13 17 -33 30 -45 13 -12
24 -29 24 -36 0 -8 7 -17 15 -21 8 -3 15 -15 15 -26 0 -11 5 -20 10 -20 6 0
10 -11 10 -25 0 -14 7 -28 15 -31 8 -4 15 -12 15 -20 0 -8 5 -14 10 -14 6 0
10 -9 10 -20 0 -11 7 -23 15 -26 8 -4 15 -15 15 -26 0 -11 7 -26 15 -34 8 -9
15 -24 15 -35 0 -10 5 -19 10 -19 6 0 10 -16 10 -35 0 -24 5 -35 15 -35 11 0
15 -11 15 -40 0 -22 4 -40 9 -40 5 0 12 -22 16 -50 4 -27 11 -50 15 -50 7 0
21 -209 20 -305 0 -94 -12 -225 -19 -225 -5 0 -11 -27 -15 -60 -4 -33 -11 -60
-16 -60 -6 0 -10 -23 -10 -50 0 -36 -4 -52 -15 -56 -10 -4 -15 -20 -15 -45 0
-21 -4 -39 -10 -39 -5 0 -10 -16 -10 -35 0 -22 -6 -38 -15 -41 -11 -4 -15 -21
-15 -55 0 -37 -4 -49 -15 -49 -10 0 -15 -11 -15 -35 0 -19 -4 -35 -10 -35 -5
0 -10 -17 -10 -37 0 -21 -7 -47 -15 -57 -8 -11 -15 -35 -15 -53 0 -18 -4 -33
-9 -33 -4 0 -11 -19 -14 -42 -3 -24 -11 -44 -16 -46 -6 -2 -11 -19 -11 -39 0
-19 -7 -41 -15 -49 -8 -9 -15 -26 -15 -40 0 -13 -4 -24 -10 -24 -5 0 -10 -18
-10 -39 0 -25 -5 -41 -15 -45 -9 -3 -15 -19 -15 -41 0 -19 -4 -35 -10 -35 -5
0 -10 -11 -10 -25 0 -14 -7 -28 -15 -31 -9 -4 -15 -19 -15 -40 0 -24 -5 -34
-15 -34 -9 0 -15 -9 -15 -25 0 -14 -4 -25 -10 -25 -5 0 -10 -13 -10 -29 0 -16
-7 -36 -15 -45 -8 -8 -15 -24 -15 -36 0 -12 -7 -28 -15 -36 -8 -9 -15 -26 -15
-40 0 -13 -4 -24 -10 -24 -5 0 -10 -11 -10 -24 0 -13 -7 -26 -15 -30 -8 -3
-15 -17 -15 -31 0 -14 -4 -25 -10 -25 -5 0 -10 -9 -10 -20 0 -11 -7 -23 -15
-26 -8 -4 -15 -17 -15 -30 0 -13 -4 -24 -10 -24 -5 0 -12 -16 -16 -35 -3 -19
-10 -35 -15 -35 -5 0 -9 -13 -9 -30 0 -20 -5 -30 -15 -30 -9 0 -15 -9 -15 -25
0 -14 -4 -25 -9 -25 -5 0 -12 -11 -15 -25 -4 -14 -11 -25 -16 -25 -6 0 -10
-11 -10 -25 0 -14 -4 -25 -10 -25 -5 0 -10 -7 -10 -15 0 -9 -7 -18 -15 -21 -8
-4 -15 -17 -15 -29 0 -13 -7 -30 -15 -39 -8 -8 -15 -19 -15 -25 0 -6 -4 -11
-10 -11 -5 0 -10 -11 -10 -25 0 -16 -6 -25 -15 -25 -9 0 -15 -9 -15 -25 0 -14
-4 -25 -9 -25 -5 0 -12 -11 -15 -25 -4 -14 -11 -25 -16 -25 -6 0 -10 -11 -10
-25 0 -14 -7 -28 -15 -31 -8 -4 -15 -15 -15 -26 0 -12 -11 -31 -25 -44 -14
-13 -25 -32 -25 -44 0 -11 -4 -20 -10 -20 -5 0 -12 -11 -16 -25 -3 -14 -10
-25 -14 -25 -4 0 -11 -11 -14 -25 -4 -14 -11 -25 -16 -25 -6 0 -10 -7 -10 -15
0 -8 -4 -15 -10 -15 -5 0 -10 -9 -10 -20 0 -11 -7 -23 -15 -26 -8 -4 -15 -17
-15 -30 0 -15 -6 -24 -15 -24 -8 0 -15 -7 -15 -15 0 -8 -4 -15 -10 -15 -5 0
-10 -11 -10 -25 0 -16 -6 -25 -15 -25 -8 0 -15 -9 -15 -20 0 -12 -11 -31 -25
-44 -14 -13 -25 -33 -25 -45 0 -12 -6 -21 -15 -21 -8 0 -15 -7 -15 -15 0 -8
-4 -15 -10 -15 -5 0 -10 -9 -10 -20 0 -11 -7 -23 -15 -26 -8 -4 -15 -12 -15
-20 0 -8 -4 -14 -10 -14 -5 0 -12 -11 -16 -25 -3 -14 -10 -25 -15 -25 -5 0 -9
-9 -9 -20 0 -11 -7 -23 -15 -26 -8 -4 -15 -12 -15 -20 0 -8 -4 -14 -10 -14 -5
0 -10 -9 -10 -20 0 -11 -7 -23 -15 -26 -8 -4 -15 -15 -15 -26 0 -12 -11 -31
-25 -44 -14 -13 -25 -32 -25 -44 0 -11 -7 -20 -15 -20 -9 0 -15 -9 -15 -25 0
-14 -4 -25 -9 -25 -5 0 -12 -11 -15 -25 -4 -14 -11 -25 -16 -25 -6 0 -10 -7
-10 -15 0 -8 -4 -15 -10 -15 -5 0 -12 -11 -16 -25 -3 -14 -10 -25 -15 -25 -5
0 -9 -11 -9 -25 0 -16 -6 -25 -15 -25 -9 0 -15 -9 -15 -25 0 -14 -4 -25 -9
-25 -5 0 -12 -11 -15 -25 -4 -14 -11 -25 -16 -25 -6 0 -10 -7 -10 -16 0 -8 -7
-22 -15 -30 -8 -9 -15 -26 -15 -40 0 -13 -4 -24 -9 -24 -5 0 -12 -11 -15 -25
-4 -14 -11 -25 -16 -25 -6 0 -10 -7 -10 -15 0 -8 -4 -15 -10 -15 -5 0 -12 -11
-16 -25 -3 -14 -10 -25 -15 -25 -5 0 -9 -7 -9 -15 0 -8 -4 -15 -9 -15 -5 0
-13 -10 -17 -22 -8 -25 -107 -128 -123 -128 -6 0 -11 -7 -11 -15 0 -8 -5 -15
-10 -15 -10 0 -22 -8 -55 -38 -7 -6 -18 -12 -24 -12 -6 0 -11 -7 -11 -15 0 -8
-7 -15 -15 -15 -8 0 -15 -4 -15 -10 0 -5 -11 -10 -25 -10 -16 0 -25 -6 -25
-15 0 -9 -9 -15 -25 -15 -14 0 -25 -4 -25 -10 0 -5 -18 -13 -40 -16 -22 -4
-40 -10 -40 -15 0 -5 -11 -9 -24 -9 -13 0 -26 -7 -30 -15 -3 -9 -19 -15 -41
-15 -19 0 -35 -4 -35 -9 0 -5 -23 -11 -52 -13 -29 -3 -54 -11 -56 -17 -2 -6
-24 -11 -49 -11 -26 0 -51 -6 -59 -15 -9 -8 -29 -15 -45 -15 -16 0 -29 -4 -29
-10 0 -5 -22 -10 -50 -10 -47 0 -50 2 -50 25 0 14 4 25 10 25 5 0 13 18 16 40
4 22 10 40 15 40 5 0 9 15 9 34 0 21 6 36 15 40 10 3 15 19 15 46 0 22 5 40
10 40 6 0 10 37 10 90 0 53 -4 90 -10 90 -5 0 -10 11 -10 25 0 16 -6 25 -15
25 -8 0 -15 5 -15 11 0 14 -25 39 -39 39 -6 0 -11 7 -11 15 0 22 -148 22 -156
0 -4 -9 -19 -15 -40 -15 -19 0 -34 -4 -34 -10 0 -5 -11 -10 -25 -10 -14 0 -28
-7 -31 -15 -4 -8 -17 -15 -30 -15 -13 0 -24 -4 -24 -10 0 -5 -18 -13 -40 -16
-22 -4 -40 -10 -40 -15 0 -5 -11 -9 -24 -9 -14 0 -31 -7 -40 -15 -8 -8 -26
-15 -40 -15 -14 0 -26 -4 -26 -9 0 -5 -11 -12 -25 -15 -14 -4 -25 -11 -25 -16
0 -6 -13 -10 -29 -10 -16 0 -34 -7 -41 -15 -7 -8 -23 -15 -36 -15 -13 0 -24
-4 -24 -10 0 -5 -11 -10 -25 -10 -14 0 -28 -7 -31 -15 -4 -9 -19 -15 -40 -15
-19 0 -34 -4 -34 -9 0 -5 -11 -12 -25 -15 -14 -4 -25 -11 -25 -16 0 -6 -13
-10 -30 -10 -20 0 -30 -5 -30 -15 0 -10 -11 -15 -35 -15 -19 0 -35 -4 -35 -10
0 -5 -11 -10 -25 -10 -14 0 -28 -7 -31 -15 -4 -8 -17 -15 -30 -15 -13 0 -24
-4 -24 -10 0 -5 -16 -12 -35 -16 -19 -3 -35 -10 -35 -15 0 -5 -13 -9 -30 -9
-20 0 -30 -5 -30 -15 0 -9 -9 -15 -25 -15 -14 0 -25 -4 -25 -10 0 -5 -11 -10
-25 -10 -16 0 -25 -6 -25 -15 0 -8 -9 -15 -20 -15 -12 0 -31 -11 -43 -24 -12
-13 -32 -26 -44 -30 -13 -4 -23 -12 -23 -17 0 -5 -7 -9 -15 -9 -8 0 -15 -5
-15 -11 0 -14 -25 -39 -39 -39 -6 0 -11 -11 -11 -25 0 -16 -6 -25 -15 -25 -8
0 -15 -4 -15 -9 0 -5 -10 -13 -22 -17 -13 -4 -33 -17 -45 -30 -24 -26 -63 -32
-63 -10 0 8 7 21 15 30 8 8 15 31 15 50 0 20 5 36 10 36 6 0 10 13 10 29 0 16
7 36 15 45 8 8 15 24 15 35 0 12 4 21 10 21 5 0 12 11 16 25 3 14 10 25 15 25
5 0 9 11 9 25 0 16 6 25 15 25 8 0 15 7 15 15 0 8 4 15 9 15 5 0 12 11 15 25
4 14 11 25 16 25 6 0 10 7 10 15 0 8 5 15 11 15 14 0 39 25 39 39 0 6 7 11 15
11 8 0 15 7 15 15 0 8 5 15 11 15 14 0 39 25 39 39 0 6 5 11 11 11 14 0 39 25
39 39 0 6 7 11 15 11 8 0 15 4 15 9 0 5 10 13 23 17 12 4 43 29 68 55 26 27
50 49 53 49 8 0 24 13 66 52 15 16 33 28 39 28 6 0 11 5 11 10 0 10 8 22 38
55 24 26 14 45 -23 45 -19 0 -35 5 -35 10 0 6 -25 10 -55 10 -30 0 -55 -4 -55
-10 0 -5 -18 -13 -40 -16 -22 -4 -40 -10 -40 -15 0 -5 -11 -9 -25 -9 -16 0
-25 -6 -25 -15 0 -9 -9 -15 -25 -15 -14 0 -25 -4 -25 -10 0 -5 -13 -10 -29
-10 -16 0 -36 -7 -45 -15 -9 -9 -33 -15 -64 -15 -28 0 -52 -5 -54 -10 -2 -6
-36 -13 -76 -17 -39 -3 -72 -10 -72 -14 0 -5 -18 -9 -40 -9 -29 0 -40 -4 -40
-15 0 -11 -11 -15 -40 -15 -22 0 -40 -4 -40 -9 0 -5 -11 -12 -25 -15 -14 -4
-25 -11 -25 -16 0 -6 -11 -10 -25 -10 -16 0 -25 -6 -25 -15 0 -9 -9 -15 -25
-15 -14 0 -25 -4 -25 -10 0 -5 -6 -10 -14 -10 -7 0 -19 -7 -26 -15 -7 -8 -21
-15 -31 -15 -11 0 -19 -4 -19 -10 0 -5 -11 -12 -25 -16 -14 -3 -25 -10 -25
-15 0 -5 -11 -9 -25 -9 -14 0 -25 -4 -25 -10 0 -5 -11 -12 -25 -16 -14 -3 -25
-10 -25 -15 0 -5 -11 -9 -24 -9 -13 0 -26 -7 -30 -15 -3 -8 -15 -15 -26 -15
-12 0 -28 -7 -36 -15 -9 -8 -26 -15 -40 -15 -13 0 -24 -4 -24 -10 0 -5 -13
-10 -30 -10 -20 0 -30 -5 -30 -15 0 -9 -9 -15 -25 -15 -14 0 -25 -4 -25 -10 0
-5 -4 -10 -10 -10 -19 0 -10 43 15 66 14 13 25 28 25 34 0 6 11 21 25 34 14
13 25 31 25 40 0 9 11 27 25 40 14 13 25 28 25 35 0 6 7 11 15 11 9 0 15 9 15
25 0 16 6 25 15 25 8 0 15 5 15 11 0 14 25 39 39 39 6 0 11 5 11 11 0 14 25
39 39 39 6 0 11 7 11 15 0 8 7 15 15 15 8 0 15 4 15 9 0 5 10 13 23 17 12 4
32 17 44 30 12 13 29 24 38 24 8 0 15 5 15 10 0 6 7 10 15 10 9 0 18 7 21 15
4 8 17 15 30 15 13 0 24 4 24 10 0 5 11 12 25 16 14 3 25 10 25 15 0 5 16 9
35 9 24 0 35 5 35 15 0 11 11 15 40 15 22 0 40 4 40 10 0 5 18 13 40 16 22 4
40 10 40 15 0 5 13 9 29 9 16 0 36 7 45 15 8 8 31 15 50 15 20 0 36 5 36 10 0
6 16 10 36 10 19 0 42 7 50 15 10 9 34 15 65 15 27 0 49 4 49 9 0 5 20 12 45
15 25 4 45 11 45 17 0 5 20 9 45 9 31 0 47 5 51 15 4 10 20 15 45 15 21 0 39
4 39 9 0 5 18 11 40 15 22 3 40 11 40 16 0 6 16 10 35 10 19 0 35 4 35 9 0 5
11 12 25 15 14 4 25 11 25 16 0 6 14 10 30 10 20 0 30 5 30 15 0 9 9 15 21 15
12 0 32 11 45 25 13 14 32 25 44 25 11 0 20 7 20 15 0 8 5 15 10 15 6 0 23 11
38 25 15 14 30 25 34 25 8 0 98 88 98 96 0 5 11 19 38 49 6 7 12 18 12 24 0 6
7 11 15 11 8 0 15 9 15 20 0 12 11 31 25 44 14 13 25 33 25 45 0 12 6 21 15
21 8 0 15 7 15 15 0 8 5 15 10 15 6 0 10 11 10 24 0 14 7 31 15 40 8 8 15 26
15 40 0 16 6 26 15 26 9 0 15 9 15 25 0 14 5 25 10 25 6 0 10 16 10 36 0 19 7
42 15 50 9 9 15 34 15 60 0 24 4 44 9 44 5 0 11 26 13 57 3 31 10 59 16 61 8
2 12 28 12 67 0 40 4 65 12 67 6 2 13 31 16 66 2 34 8 62 13 62 5 0 9 17 9 38
0 21 7 47 15 58 8 10 15 40 15 67 0 26 4 47 9 47 4 0 11 28 15 63 3 34 11 64
16 65 6 2 10 32 10 67 0 38 4 65 11 67 6 2 14 27 17 56 2 29 8 52 13 52 5 0 9
18 9 39 0 22 7 46 15 55 8 8 15 31 15 50 0 20 4 36 10 36 5 0 13 18 16 40 4
22 10 40 15 40 5 0 9 18 9 40 0 29 4 40 15 40 9 0 15 9 15 25 0 14 5 25 10 25
6 0 10 9 10 21 0 11 7 27 15 35 8 9 15 26 15 39 0 12 7 25 15 29 8 3 15 12 15
21 0 8 5 15 10 15 6 0 10 11 10 25 0 16 6 25 15 25 9 0 15 9 15 25 0 14 4 25
10 25 5 0 12 11 16 25 3 14 10 25 15 25 5 0 9 7 9 15 0 8 4 15 9 15 5 0 13 10
17 22 3 12 21 36 39 52 18 17 35 41 39 54 4 12 12 22 17 22 5 0 9 7 9 15 0 8
5 15 11 15 14 0 39 25 39 39 0 6 7 11 15 11 8 0 15 5 15 11 0 14 25 39 39 39
6 0 11 7 11 15 0 8 7 15 15 15 8 0 15 7 15 15 0 8 5 15 10 15 10 0 22 8 55 37
7 7 18 13 24 13 6 0 11 4 11 9 0 5 11 12 25 15 14 4 25 11 25 16 0 6 7 10 15
10 8 0 15 4 15 9 0 5 10 13 22 17 28 9 108 90 108 109 0 8 5 15 10 15 6 0 10
18 10 39 0 31 -4 41 -20 46 -11 3 -20 11 -20 16 0 5 -18 9 -41 9 -23 0 -47 7
-55 15 -11 10 -36 15 -80 15 -36 0 -64 4 -64 10 0 6 -28 10 -65 10 -51 0 -65
3 -65 15 0 12 -13 15 -55 15 -30 0 -55 4 -55 9 0 5 -18 11 -40 15 -22 3 -40
11 -40 16 0 6 -15 10 -34 10 -21 0 -36 6 -40 15 -3 9 -19 15 -41 15 -19 0 -35
5 -35 10 0 6 -11 10 -25 10 -14 0 -28 7 -31 15 -4 9 -19 15 -40 15 -19 0 -34
4 -34 9 0 5 -11 12 -25 15 -14 4 -25 11 -25 16 0 6 -11 10 -25 10 -14 0 -28 7
-31 15 -4 8 -17 15 -30 15 -13 0 -24 5 -24 10 0 6 -11 10 -25 10 -16 0 -25 6
-25 15 0 9 -9 15 -25 15 -16 0 -25 6 -25 15 0 8 -7 15 -15 15 -8 0 -15 5 -15
10 0 6 -11 10 -25 10 -16 0 -25 6 -25 15 0 9 -9 15 -25 15 -14 0 -25 5 -25 10
0 6 -7 10 -15 10 -8 0 -15 7 -15 15 0 9 -9 15 -25 15 -16 0 -25 6 -25 15 0 8
-5 15 -10 15 -6 0 -23 11 -38 25 -15 14 -32 25 -39 25 -7 0 -13 5 -13 10 0 6
-7 10 -15 10 -8 0 -15 7 -15 15 0 9 -9 15 -25 15 -16 0 -25 6 -25 15 0 8 -5
15 -11 15 -7 0 -26 15 -43 34 -18 18 -42 37 -54 40 -12 4 -22 12 -22 17 0 5
-7 9 -15 9 -8 0 -15 7 -15 15 0 8 -5 15 -11 15 -14 0 -39 25 -39 39 0 6 -5 11
-11 11 -7 0 -22 11 -35 25 -13 14 -28 25 -34 25 -6 0 -21 11 -34 25 -13 14
-28 25 -35 25 -6 0 -11 5 -11 11 0 14 -55 69 -69 69 -6 0 -11 5 -11 11 0 14
-25 39 -39 39 -6 0 -11 7 -11 15 0 8 -7 15 -15 15 -8 0 -15 5 -15 11 0 14 -25
39 -39 39 -6 0 -11 5 -11 11 0 14 -25 39 -39 39 -6 0 -11 5 -11 11 0 7 -11 22
-25 35 -14 13 -25 26 -25 29 0 6 -11 20 -37 50 -7 7 -13 18 -13 24 0 6 -7 11
-15 11 -8 0 -15 7 -15 15 0 8 -4 15 -10 15 -5 0 -12 11 -16 25 -3 14 -10 25
-15 25 -5 0 -9 7 -9 15 0 8 -4 15 -9 15 -5 0 -13 10 -17 22 -6 20 -13 31 -41
63 -7 7 -13 21 -13 29 0 9 -4 16 -10 16 -5 0 -12 11 -16 25 -3 14 -10 25 -15
25 -5 0 -9 11 -9 25 0 16 -6 25 -15 25 -9 0 -15 9 -15 25 0 14 -4 25 -9 25 -5
0 -12 11 -15 25 -4 14 -11 25 -16 25 -6 0 -10 14 -10 30 0 20 -5 30 -15 30 -9
0 -15 9 -15 25 0 14 -4 25 -10 25 -5 0 -10 11 -10 25 0 16 -6 25 -15 25 -10 0
-15 10 -15 30 0 17 -4 30 -10 30 -5 0 -10 16 -10 35 0 24 -5 35 -15 35 -11 0
-15 12 -15 49 0 34 -4 51 -15 55 -10 4 -15 20 -15 51 0 25 -4 45 -10 45 -5 0
-10 19 -10 43 0 24 -7 52 -15 63 -9 11 -14 42 -15 77 0 31 -4 57 -9 57 -5 0
-11 23 -15 51 -4 28 -13 58 -21 65 -16 16 -55 19 -55 4 0 -5 -7 -10 -15 -10
-9 0 -15 -9 -15 -25 0 -14 -4 -25 -9 -25 -5 0 -11 -18 -15 -40 -3 -22 -11 -40
-16 -40 -6 0 -10 -12 -10 -26 0 -14 -7 -32 -15 -40 -8 -9 -15 -33 -15 -55 0
-21 -4 -39 -8 -39 -20 0 -51 -378 -32 -390 6 -4 13 -56 17 -123 3 -64 10 -117
15 -117 4 0 8 -22 8 -49 0 -31 6 -55 15 -65 10 -10 15 -35 15 -75 0 -34 4 -61
9 -61 5 0 12 -25 16 -55 3 -30 11 -55 16 -55 5 0 9 -13 9 -29 0 -16 7 -34 15
-41 8 -7 15 -23 15 -36 0 -13 5 -24 10 -24 6 0 10 -11 10 -25 0 -14 7 -28 15
-31 8 -4 15 -17 15 -30 0 -13 4 -24 10 -24 5 0 12 -11 16 -25 3 -14 10 -25 15
-25 5 0 9 -11 9 -25 0 -16 6 -25 15 -25 9 0 15 -9 15 -21 0 -12 11 -32 25 -45
14 -13 25 -32 25 -44 0 -11 7 -20 15 -20 8 0 15 -7 15 -15 0 -8 5 -15 10 -15
6 0 10 -11 10 -25 0 -16 6 -25 15 -25 9 0 15 -9 15 -21 0 -22 22 -49 39 -49 6
0 11 -9 11 -20 0 -12 11 -31 25 -44 14 -13 25 -28 25 -35 0 -6 7 -11 15 -11 9
0 15 -9 15 -21 0 -13 21 -41 50 -69 28 -26 50 -53 50 -59 0 -6 7 -11 15 -11 8
0 15 -7 15 -15 0 -9 11 -26 25 -39 14 -13 25 -28 25 -35 0 -6 7 -11 15 -11 8
0 15 -5 15 -11 0 -14 25 -39 39 -39 6 0 11 -7 11 -15 0 -8 4 -15 9 -15 5 0 13
-10 17 -22 3 -12 22 -36 40 -54 19 -17 34 -36 34 -43 0 -6 7 -11 15 -11 8 0
15 -5 15 -11 0 -14 25 -39 39 -39 6 0 11 -7 11 -15 0 -8 7 -15 15 -15 8 0 15
-5 15 -11 0 -14 25 -39 39 -39 6 0 11 -7 11 -15 0 -8 7 -15 15 -15 8 0 15 -9
15 -20 0 -11 5 -20 10 -20 6 0 10 -5 10 -10 0 -6 11 -21 24 -33 13 -12 26 -32
30 -44 4 -13 12 -23 17 -23 5 0 9 -7 9 -15 0 -8 5 -15 11 -15 14 0 39 -25 39
-39 0 -6 7 -11 15 -11 8 0 15 -6 15 -14 0 -8 6 -17 13 -19 9 -4 9 -8 1 -14 -6
-4 -14 -18 -18 -30 -4 -13 -12 -23 -17 -23 -5 0 -9 -7 -9 -15 0 -8 -4 -15 -10
-15 -5 0 -10 -11 -10 -25 0 -16 -6 -25 -15 -25 -9 0 -15 -9 -15 -25 0 -25 -1
-25 -80 -25 -47 0 -80 4 -80 10 0 6 -45 10 -114 10 -82 0 -115 3 -118 12 -3 9
-34 14 -91 16 -48 2 -87 8 -87 12 0 4 -28 10 -62 12 -35 3 -64 10 -66 16 -2 7
-22 12 -44 12 -22 0 -46 7 -54 15 -9 8 -26 15 -40 15 -13 0 -24 5 -24 10 0 6
-21 10 -47 10 -27 0 -57 7 -67 15 -11 8 -32 15 -48 15 -15 0 -28 5 -28 10 0 6
-16 10 -35 10 -22 0 -38 6 -41 15 -4 9 -19 15 -40 15 -19 0 -34 4 -34 10 0 5
-18 13 -40 16 -22 4 -40 10 -40 15 0 5 -16 9 -35 9 -22 0 -38 6 -41 15 -4 9
-19 15 -40 15 -19 0 -34 4 -34 9 0 5 -13 12 -30 16 -16 4 -30 11 -30 16 0 5
-11 9 -25 9 -14 0 -25 4 -25 9 0 5 -11 12 -25 15 -14 4 -25 11 -25 16 0 6 -13
10 -29 10 -16 0 -36 7 -45 15 -8 8 -24 15 -35 15 -12 0 -21 4 -21 10 0 5 -11
12 -25 16 -14 3 -25 9 -25 13 0 3 -20 15 -45 26 -25 11 -45 23 -45 27 0 5 -9
8 -20 8 -11 0 -23 7 -26 15 -4 8 -17 15 -30 15 -13 0 -24 4 -24 10 0 5 -11 12
-25 16 -14 3 -25 10 -25 15 0 5 -11 9 -25 9 -16 0 -25 6 -25 15 0 8 -7 15 -15
15 -8 0 -15 5 -15 10 0 6 -9 10 -20 10 -11 0 -23 7 -26 15 -4 8 -17 15 -30 15
-13 0 -24 4 -24 10 0 5 -11 12 -25 16 -14 3 -25 10 -25 15 0 5 -7 9 -15 9 -8
0 -15 7 -15 15 0 9 -9 15 -25 15 -14 0 -25 4 -25 9 0 5 -11 12 -25 15 -14 4
-25 11 -25 16 0 6 -7 10 -15 10 -8 0 -15 4 -15 10 0 5 -11 12 -25 16 -14 3
-25 10 -25 15 0 5 -11 9 -25 9 -16 0 -25 6 -25 15 0 9 -9 15 -25 15 -14 0 -25
5 -25 10 0 6 -7 10 -15 10 -8 0 -15 7 -15 15 0 9 -9 15 -24 15 -13 0 -26 7
-30 15 -3 8 -15 15 -26 15 -11 0 -20 5 -20 10 0 6 -7 10 -15 10 -8 0 -15 7
-15 15 0 9 -9 15 -25 15 -14 0 -25 5 -25 10 0 6 -7 10 -15 10 -8 0 -15 7 -15
15 0 8 -9 15 -20 15 -12 0 -31 11 -44 25 -13 14 -33 25 -45 25 -12 0 -21 6
-21 15 0 8 -7 15 -15 15 -8 0 -15 4 -15 10 0 5 -11 12 -25 16 -14 3 -25 10
-25 15 0 5 -7 9 -15 9 -8 0 -15 7 -15 15 0 8 -9 15 -20 15 -11 0 -20 5 -20 10
0 6 -7 10 -15 10 -8 0 -15 7 -15 15 0 8 -7 15 -15 15 -8 0 -15 4 -15 9 0 5
-11 12 -25 15 -14 4 -25 11 -25 16 0 6 -7 10 -15 10 -8 0 -15 7 -15 15 0 9 -9
15 -21 15 -22 0 -49 22 -49 39 0 6 -7 11 -15 11 -8 0 -15 4 -15 9 0 5 -11 12
-25 15 -14 4 -25 11 -25 16 0 6 -7 10 -15 10 -8 0 -15 7 -15 15 0 8 -5 15 -11
15 -14 0 -39 25 -39 39 0 6 -7 11 -15 11 -8 0 -15 4 -15 9 0 5 -10 13 -22 17
-12 3 -36 22 -54 40 -17 19 -36 34 -43 34 -6 0 -11 5 -11 11 0 14 -55 69 -69
69 -6 0 -11 5 -11 11 0 14 -25 39 -39 39 -6 0 -11 7 -11 15 0 8 -5 15 -11 15
-14 0 -39 25 -39 39 0 6 -7 11 -15 11 -8 0 -15 7 -15 15 0 8 -5 15 -11 15 -14
0 -39 25 -39 39 0 6 -5 11 -11 11 -14 0 -39 25 -39 39 0 6 -7 11 -15 11 -8 0
-15 7 -15 15 0 8 -5 15 -11 15 -14 0 -39 25 -39 39 0 6 -7 11 -15 11 -8 0 -15
4 -15 10 0 13 -106 120 -119 120 -6 0 -11 5 -11 11 0 6 -16 25 -35 43 -19 19
-35 38 -35 45 0 6 -7 11 -15 11 -8 0 -15 5 -15 10 0 10 -8 22 -37 55 -7 7 -13
18 -13 24 0 6 -7 11 -15 11 -8 0 -15 5 -15 11 0 14 -25 39 -39 39 -6 0 -11 7
-11 15 0 8 -4 15 -9 15 -5 0 -13 10 -17 23 -4 12 -21 36 -39 53 -18 16 -36 40
-39 52 -4 12 -12 22 -17 22 -5 0 -9 6 -9 14 0 8 -7 16 -15 20 -8 3 -15 15 -15
26 0 11 -4 20 -10 20 -5 0 -10 7 -10 15 0 8 -7 15 -15 15 -9 0 -15 9 -15 21 0
12 -11 32 -25 45 -14 13 -25 32 -25 44 0 11 -7 20 -15 20 -9 0 -15 9 -15 25 0
14 -4 25 -9 25 -5 0 -12 11 -15 25 -4 14 -11 25 -16 25 -6 0 -10 11 -10 24 0
13 -7 26 -15 30 -8 3 -15 12 -15 21 0 8 -4 15 -10 15 -5 0 -10 11 -10 25 0 14
-4 25 -10 25 -5 0 -12 11 -16 25 -3 14 -10 25 -15 25 -5 0 -9 11 -9 25 0 16
-6 25 -15 25 -9 0 -15 9 -15 25 0 14 -4 25 -9 25 -5 0 -12 14 -16 30 -4 16
-11 30 -16 30 -5 0 -9 11 -9 24 0 14 -7 31 -15 40 -8 8 -15 24 -15 35 0 12 -4
21 -9 21 -5 0 -12 11 -15 25 -4 14 -11 25 -16 25 -6 0 -10 14 -10 30 0 17 -4
30 -10 30 -5 0 -12 11 -16 25 -3 14 -10 25 -15 25 -5 0 -9 11 -9 24 0 14 -7
31 -15 40 -8 8 -15 26 -15 40 0 14 -4 26 -10 26 -5 0 -12 11 -16 25 -3 14 -10
25 -15 25 -5 0 -9 12 -9 26 0 14 -7 32 -15 40 -8 9 -15 26 -15 40 0 13 -4 24
-10 24 -5 0 -10 13 -10 29 0 16 -7 36 -15 45 -8 8 -15 26 -15 40 0 14 -4 26
-9 26 -5 0 -12 16 -15 35 -4 19 -11 35 -16 35 -6 0 -10 16 -10 36 0 19 -7 42
-15 50 -8 9 -15 33 -15 55 0 21 -4 39 -10 39 -5 0 -10 16 -10 36 0 19 -7 42
-15 50 -10 10 -15 35 -15 70 0 30 -4 54 -9 54 -5 0 -13 25 -16 55 -4 30 -11
55 -16 55 -5 0 -9 24 -9 54 0 35 -5 58 -15 66 -10 8 -15 31 -15 71 0 33 -4 59
-9 59 -5 0 -11 30 -13 67 -2 39 -9 68 -16 71 -8 2 -12 33 -12 93 0 49 -4 89
-9 89 -5 0 -12 43 -16 95 -4 52 -11 95 -16 95 -5 0 -9 40 -9 89 0 49 -7 116
-15 149 -13 50 -15 124 -13 438 2 291 6 378 16 382 9 3 12 38 12 133 0 71 4
129 9 129 5 0 12 41 15 90 4 50 12 90 17 90 5 0 9 31 9 69 0 44 4 71 12 73 6
2 13 31 16 66 2 34 8 62 13 62 5 0 9 27 9 60 0 45 4 62 15 66 11 5 15 22 15
65 0 32 4 59 9 59 5 0 12 25 16 55 3 30 11 55 16 55 5 0 9 22 9 49 0 34 4 51
15 55 10 4 15 20 15 51 0 25 5 45 10 45 6 0 10 18 10 40 0 27 5 43 15 46 9 4
15 19 15 40 0 19 4 34 9 34 5 0 12 18 16 40 4 22 11 40 16 40 5 0 9 16 9 36 0
19 7 42 15 50 8 9 15 29 15 45 0 16 5 29 10 29 6 0 10 11 10 24 0 14 7 31 15
40 8 8 15 26 15 40 0 14 4 26 10 26 5 0 12 16 16 35 3 19 10 35 15 35 5 0 9
13 9 29 0 16 6 31 15 35 9 3 15 19 15 41 0 19 4 35 9 35 5 0 12 11 15 25 4 14
11 25 16 25 6 0 10 11 10 24 0 13 7 26 15 30 8 3 15 17 15 31 0 14 5 25 10 25
6 0 10 11 10 25 0 16 6 25 15 25 9 0 15 9 15 25 0 14 5 25 10 25 6 0 10 11 10
25 0 14 7 28 15 31 8 4 15 17 15 30 0 13 4 24 10 24 5 0 12 11 16 25 3 14 10
25 15 25 5 0 9 11 9 25 0 16 6 25 15 25 9 0 15 9 15 25 0 14 4 25 10 25 5 0
12 11 16 25 3 14 10 25 15 25 5 0 9 7 9 15 0 8 4 15 10 15 5 0 12 11 16 25 3
14 10 25 15 25 5 0 9 7 9 15 0 8 4 15 9 15 5 0 13 10 17 23 4 12 17 32 30 44
13 12 24 31 24 43 0 11 7 20 15 20 8 0 15 7 15 15 0 8 5 15 10 15 6 0 10 9 10
20 0 11 7 23 15 26 8 4 15 10 15 15 0 9 8 21 38 54 6 7 12 18 12 24 0 6 7 11
15 11 8 0 15 7 15 15 0 8 5 15 10 15 6 0 10 7 10 15 0 8 18 32 40 54 22 22 40
44 40 50 0 6 4 11 9 11 5 0 13 10 17 22 8 26 28 48 43 48 6 0 11 7 11 15 0 8
7 15 15 15 8 0 15 7 15 15 0 8 5 15 10 15 6 0 10 7 10 15 0 8 7 15 15 15 8 0
15 7 15 15 0 9 11 26 25 39 14 13 25 28 25 35 0 6 5 11 11 11 14 0 39 25 39
39 0 6 7 11 15 11 8 0 15 7 15 15 0 8 5 15 11 15 14 0 39 25 39 39 0 6 5 11
11 11 14 0 39 25 39 39 0 6 7 11 15 11 8 0 15 7 15 15 0 8 5 15 11 15 14 0 39
25 39 39 0 6 5 11 11 11 7 0 22 11 35 25 13 14 28 25 34 25 6 0 21 11 34 25
13 14 28 25 35 25 6 0 11 5 11 11 0 14 25 39 39 39 6 0 11 7 11 15 0 9 9 15
25 15 16 0 25 6 25 15 0 8 5 15 11 15 6 0 25 15 42 34 18 18 42 36 55 40 12 4
22 12 22 17 0 5 7 9 15 9 8 0 15 7 15 15 0 9 9 15 21 15 12 0 32 11 45 25 13
14 31 25 40 25 9 0 27 11 40 25 13 14 32 25 44 25 11 0 20 7 20 15 0 9 9 15
25 15 14 0 25 4 25 10 0 5 11 12 25 16 14 3 25 10 25 15 0 5 11 9 24 9 13 0
26 7 30 15 3 8 15 15 26 15 11 0 20 5 20 10 0 6 11 10 25 10 14 0 28 7 31 15
4 8 17 15 30 15 13 0 24 5 24 10 0 6 11 10 25 10 14 0 28 7 31 15 4 9 19 15
40 15 24 0 34 5 34 15 0 10 10 15 30 15 17 0 30 5 30 10 0 6 16 10 35 10 24 0
35 5 35 15 0 11 11 15 40 15 22 0 40 5 40 10 0 6 16 10 35 10 22 0 38 6 41 15
4 9 19 15 41 15 19 0 41 7 49 15 9 8 33 15 55 15 21 0 39 5 39 10 0 6 16 10
36 10 19 0 42 7 50 15 9 8 33 15 55 15 21 0 39 4 39 10 0 5 18 13 40 16 22 4
40 10 40 15 0 5 16 9 36 9 19 0 42 7 50 15 9 8 26 15 40 15 13 0 24 5 24 10 0
6 12 10 26 10 14 0 32 7 40 15 9 8 29 15 45 15 16 0 29 4 29 10 0 5 16 12 35
16 19 3 35 10 35 15 0 5 14 9 30 9 20 0 30 5 30 15 0 9 9 15 25 15 14 0 25 5
25 10 0 6 11 10 25 10 16 0 25 6 25 15 0 9 10 15 26 15 14 0 32 7 40 15 9 8
26 15 40 15 13 0 24 5 24 10 0 6 11 10 25 10 16 0 25 6 25 15 0 10 10 15 30
15 17 0 30 4 30 10 0 5 11 12 25 16 14 3 25 10 25 15 0 5 9 9 21 9 11 0 27 7
35 15 9 8 29 15 45 15 16 0 29 4 29 9 0 5 28 11 62 13 35 3 64 10 66 16 6 20
552 17 599 -3z m8069 -680 c9 -8 26 -15 40 -15 13 0 24 -4 24 -10 0 -5 13 -10
29 -10 16 0 36 -7 45 -15 8 -8 26 -15 40 -15 14 0 26 -4 26 -10 0 -5 11 -10
24 -10 14 0 31 -7 40 -15 8 -8 24 -15 36 -15 12 0 28 -7 36 -15 9 -8 26 -15
40 -15 13 0 24 -4 24 -10 0 -5 11 -10 24 -10 13 0 26 -7 30 -15 3 -8 17 -15
31 -15 14 0 25 -4 25 -9 0 -5 11 -12 25 -15 14 -4 25 -11 25 -16 0 -6 15 -10
34 -10 21 0 36 -6 40 -15 3 -8 17 -15 31 -15 14 0 25 -4 25 -10 0 -5 11 -10
24 -10 13 0 29 -7 36 -15 7 -8 25 -15 41 -15 16 0 29 -4 29 -10 0 -5 11 -12
25 -16 14 -3 25 -10 25 -15 0 -5 11 -9 24 -9 13 0 26 -7 30 -15 3 -8 17 -15
31 -15 14 0 25 -4 25 -10 0 -5 11 -10 25 -10 14 0 25 -4 25 -10 0 -5 11 -12
25 -16 14 -3 25 -10 25 -15 0 -5 6 -9 14 -9 8 0 21 -6 28 -14 8 -7 24 -17 36
-20 12 -4 22 -12 22 -17 0 -5 7 -9 15 -9 8 0 15 -4 15 -10 0 -5 11 -10 25 -10
16 0 25 -6 25 -15 0 -8 7 -15 15 -15 8 0 15 -4 15 -10 0 -5 11 -12 25 -16 14
-3 25 -10 25 -15 0 -5 7 -9 15 -9 8 0 15 -4 15 -9 0 -5 10 -13 23 -17 12 -4
32 -17 44 -30 12 -13 31 -24 43 -24 11 0 20 -5 20 -11 0 -14 25 -39 39 -39 6
0 11 -7 11 -15 0 -9 9 -15 21 -15 12 0 32 -11 45 -25 13 -14 28 -25 34 -25 5
0 10 -5 10 -11 0 -14 25 -39 39 -39 6 0 11 -7 11 -15 0 -8 7 -15 15 -15 9 0
26 -11 39 -25 13 -14 28 -25 35 -25 6 0 11 -7 11 -15 0 -8 5 -15 11 -15 7 0
26 -16 45 -35 18 -19 37 -35 43 -35 6 0 29 -18 51 -40 22 -22 45 -40 50 -40 6
0 10 -7 10 -15 0 -8 5 -15 11 -15 14 0 39 -25 39 -39 0 -6 7 -11 15 -11 8 0
15 -5 15 -11 0 -14 25 -39 39 -39 6 0 11 -7 11 -15 0 -8 7 -15 15 -15 8 0 15
-5 15 -11 0 -14 25 -39 39 -39 6 0 11 -5 11 -11 0 -14 25 -39 39 -39 6 0 11
-7 11 -15 0 -8 7 -15 15 -15 8 0 15 -5 15 -11 0 -14 25 -39 39 -39 6 0 11 -5
11 -11 0 -6 23 -33 50 -60 28 -27 50 -53 50 -57 0 -4 18 -27 40 -50 22 -22 40
-46 40 -52 0 -5 7 -10 15 -10 8 0 15 -5 15 -11 0 -6 6 -17 13 -24 27 -31 37
-44 37 -51 0 -4 11 -17 25 -30 14 -13 25 -26 25 -29 0 -6 11 -20 38 -50 6 -7
12 -18 12 -24 0 -6 7 -11 15 -11 9 0 15 -9 15 -25 0 -16 6 -25 15 -25 8 0 15
-7 15 -15 0 -8 5 -15 10 -15 6 0 10 -7 10 -15 0 -8 7 -15 15 -15 9 0 15 -9 15
-21 0 -12 11 -32 25 -45 14 -13 25 -30 25 -37 0 -8 7 -17 15 -21 8 -3 15 -12
15 -21 0 -8 5 -15 10 -15 6 0 10 -9 10 -20 0 -11 7 -23 15 -26 8 -4 15 -14 15
-24 0 -10 7 -20 15 -24 8 -3 15 -12 15 -21 0 -8 5 -15 10 -15 6 0 10 -11 10
-25 0 -16 6 -25 15 -25 9 0 15 -9 15 -25 0 -14 4 -25 9 -25 5 0 12 -11 15 -25
4 -14 11 -25 16 -25 6 0 10 -11 10 -25 0 -14 4 -25 10 -25 5 0 12 -11 16 -25
3 -14 10 -25 15 -25 5 0 9 -5 9 -11 0 -6 7 -17 15 -25 8 -9 15 -26 15 -40 0
-13 5 -24 10 -24 6 0 10 -9 10 -19 0 -11 7 -26 15 -35 8 -8 15 -24 15 -35 0
-12 4 -21 9 -21 5 0 12 -13 16 -30 4 -16 11 -30 16 -30 5 0 9 -9 9 -21 0 -11
7 -27 15 -35 8 -9 15 -26 15 -40 0 -13 4 -24 9 -24 5 0 11 -18 15 -40 3 -22
11 -40 16 -40 6 0 10 -13 10 -30 0 -16 4 -30 9 -30 5 0 11 -18 15 -40 3 -22
11 -40 16 -40 6 0 10 -17 10 -39 0 -22 6 -44 15 -51 8 -7 15 -28 15 -46 0 -19
5 -34 10 -34 6 0 10 -18 10 -40 0 -27 5 -43 15 -46 10 -4 15 -21 15 -54 0 -28
5 -50 12 -52 6 -2 13 -31 16 -66 2 -34 8 -62 12 -62 4 0 10 -32 12 -71 3 -39
11 -76 17 -82 6 -6 11 -43 11 -84 0 -40 4 -73 8 -73 5 0 12 -53 15 -117 4 -66
11 -119 17 -121 15 -5 14 -719 -1 -724 -7 -2 -13 -47 -17 -121 -2 -64 -9 -117
-13 -117 -5 0 -9 -40 -9 -88 0 -50 -7 -110 -15 -138 -8 -27 -15 -79 -15 -116
0 -38 -4 -68 -9 -68 -5 0 -11 -30 -13 -67 -2 -39 -9 -68 -16 -71 -7 -2 -12
-24 -12 -53 0 -27 -4 -49 -10 -49 -5 0 -13 -18 -16 -40 -4 -22 -10 -40 -15
-40 -5 0 -9 -18 -9 -40 0 -29 -4 -40 -15 -40 -11 0 -15 -12 -15 -50 0 -27 -4
-50 -9 -50 -4 0 -11 -28 -15 -62 -3 -35 -11 -64 -16 -66 -6 -2 -10 -15 -10
-29 0 -13 -7 -31 -15 -39 -8 -9 -15 -26 -15 -39 0 -13 -3 -25 -7 -27 -13 -5
-43 -68 -43 -89 0 -10 -4 -19 -10 -19 -5 0 -12 -11 -16 -25 -3 -14 -10 -25
-15 -25 -5 0 -9 -11 -9 -24 0 -13 -7 -26 -15 -30 -8 -3 -15 -17 -15 -31 0 -14
-4 -25 -10 -25 -5 0 -10 -9 -10 -20 0 -11 -7 -23 -15 -26 -8 -4 -15 -15 -15
-26 0 -12 -11 -31 -25 -44 -14 -13 -25 -32 -25 -44 0 -11 -7 -20 -15 -20 -9 0
-15 -9 -15 -25 0 -14 -4 -25 -10 -25 -5 0 -10 -7 -10 -15 0 -8 -7 -15 -15 -15
-9 0 -15 -9 -15 -25 0 -14 -4 -25 -10 -25 -5 0 -12 -11 -16 -25 -3 -14 -10
-25 -15 -25 -5 0 -9 -7 -9 -15 0 -8 -7 -15 -15 -15 -9 0 -15 -9 -15 -21 0 -12
-11 -32 -25 -45 -14 -13 -25 -28 -25 -34 0 -6 -11 -21 -24 -33 -13 -12 -26
-32 -30 -44 -4 -13 -12 -23 -17 -23 -5 0 -9 -5 -9 -11 0 -7 -11 -22 -25 -35
-14 -13 -25 -26 -25 -29 0 -4 -6 -13 -12 -20 -30 -33 -38 -45 -38 -55 0 -5 -7
-10 -15 -10 -8 0 -15 -5 -15 -10 0 -14 -236 -250 -250 -250 -5 0 -10 -5 -10
-11 0 -14 -25 -39 -39 -39 -6 0 -11 -7 -11 -15 0 -8 -5 -15 -11 -15 -7 0 -22
-11 -35 -25 -13 -14 -29 -25 -37 -25 -8 0 -23 -11 -33 -25 -10 -14 -29 -25
-42 -25 -12 0 -25 -7 -28 -15 -4 -8 -14 -15 -24 -15 -10 0 -20 -7 -24 -15 -3
-8 -12 -15 -21 -15 -8 0 -15 -4 -15 -10 0 -15 -39 -12 -56 4 -8 8 -14 23 -14
34 0 11 -7 22 -15 26 -8 3 -15 15 -15 26 0 11 -4 20 -10 20 -5 0 -10 7 -10 15
0 8 -7 15 -15 15 -8 0 -15 7 -15 15 0 8 -4 15 -9 15 -5 0 -12 11 -15 25 -4 14
-11 25 -16 25 -6 0 -10 7 -10 15 0 8 -7 15 -15 15 -8 0 -15 5 -15 11 0 14 -25
39 -39 39 -6 0 -11 9 -11 20 0 12 -11 31 -25 44 -14 13 -25 28 -25 35 0 6 -5
11 -11 11 -14 0 -39 25 -39 39 0 6 -7 11 -15 11 -9 0 -15 9 -15 25 0 14 -5 25
-11 25 -14 0 -39 25 -39 39 0 6 -7 11 -15 11 -8 0 -15 5 -15 11 0 14 -25 39
-39 39 -6 0 -11 7 -11 15 0 8 -5 15 -11 15 -14 0 -39 25 -39 39 0 6 -7 11 -15
11 -8 0 -15 5 -15 11 0 14 -25 39 -39 39 -6 0 -11 7 -11 15 0 8 -5 15 -11 15
-6 0 -28 18 -50 40 -22 22 -46 40 -54 40 -8 0 -15 5 -15 11 0 14 -25 39 -39
39 -6 0 -11 7 -11 15 0 8 -5 15 -11 15 -14 0 -39 25 -39 39 0 6 -5 11 -10 11
-6 0 -56 45 -111 100 -55 55 -105 100 -110 100 -5 0 -9 7 -9 15 0 8 -7 15 -15
15 -8 0 -15 7 -15 15 0 8 -5 15 -10 15 -10 0 -22 8 -55 38 -7 6 -18 12 -24 12
-6 0 -11 7 -11 15 0 8 -5 15 -11 15 -14 0 -39 25 -39 39 0 6 -5 11 -11 11 -14
0 -39 25 -39 39 0 6 -7 11 -15 11 -8 0 -15 7 -15 15 0 8 -5 15 -11 15 -6 0
-28 18 -50 40 -22 22 -46 40 -54 40 -8 0 -15 5 -15 11 0 11 -24 39 -34 39 -4
0 -28 23 -55 50 -27 28 -54 50 -60 50 -6 0 -11 5 -11 11 0 14 -25 39 -39 39
-6 0 -11 7 -11 15 0 9 -9 15 -25 15 -16 0 -25 6 -25 15 0 8 -7 15 -15 15 -8 0
-15 5 -15 10 0 6 18 10 40 10 29 0 40 4 40 15 0 11 11 15 40 15 22 0 40 4 40
9 0 5 14 12 30 16 17 4 30 11 30 16 0 5 16 9 35 9 24 0 35 5 35 15 0 9 9 15
25 15 14 0 25 5 25 10 0 6 11 10 25 10 14 0 28 7 31 15 4 8 17 15 30 15 13 0
24 4 24 9 0 5 11 12 25 15 14 4 25 11 25 16 0 6 11 10 25 10 16 0 25 6 25 15
0 9 9 15 25 15 14 0 25 4 25 9 0 5 11 12 25 15 14 4 25 11 25 16 0 6 9 10 20
10 12 0 31 11 44 25 13 14 33 25 45 25 12 0 21 6 21 15 0 8 7 15 15 15 8 0 15
4 15 9 0 5 11 12 25 15 14 4 25 11 25 16 0 6 7 10 15 10 8 0 15 7 15 15 0 8 7
15 15 15 8 0 15 5 15 10 0 6 8 10 19 10 10 0 27 11 37 25 10 14 24 25 31 25 7
0 13 7 13 15 0 9 9 15 25 15 16 0 25 6 25 15 0 8 5 15 11 15 14 0 39 25 39 39
0 6 5 11 10 11 13 0 200 187 200 200 0 5 7 10 15 10 8 0 15 5 15 10 0 10 8 22
38 55 6 7 12 18 12 24 0 6 7 11 15 11 8 0 15 7 15 15 0 8 4 15 9 15 5 0 12 11
15 25 4 14 11 25 16 25 6 0 10 7 10 15 0 8 4 15 10 15 5 0 12 11 16 25 3 14
10 25 14 25 4 0 11 11 14 25 4 14 11 25 16 25 6 0 10 7 10 15 0 8 5 15 10 15
6 0 10 9 10 20 0 11 7 23 15 26 8 4 15 17 15 30 0 13 4 24 10 24 5 0 12 11 16
25 3 14 10 25 15 25 5 0 9 11 9 24 0 13 7 26 15 30 8 3 15 17 15 31 0 14 5 25
10 25 6 0 10 11 10 25 0 16 6 25 15 25 11 0 15 11 15 36 0 19 7 42 15 50 8 9
15 29 15 45 0 16 5 29 10 29 6 0 10 18 10 39 0 22 7 46 15 55 8 8 15 31 15 50
0 20 5 36 10 36 6 0 10 18 10 39 0 22 7 46 15 55 10 10 15 35 15 74 0 39 4 62
13 64 8 3 13 35 15 96 2 51 8 92 13 92 5 0 9 86 9 195 0 107 -4 195 -9 195 -5
0 -11 50 -13 112 -3 73 -9 113 -16 116 -8 2 -12 28 -12 69 0 44 -5 69 -15 79
-9 10 -15 34 -15 65 0 27 -4 49 -10 49 -5 0 -10 22 -10 49 0 34 -4 51 -15 55
-11 4 -15 20 -15 56 0 27 -4 50 -9 50 -5 0 -11 18 -15 40 -3 22 -11 40 -16 40
-6 0 -10 16 -10 36 0 19 -7 42 -15 50 -8 9 -15 29 -15 45 0 16 -4 29 -10 29
-5 0 -10 16 -10 35 0 24 -5 35 -15 35 -11 0 -15 11 -15 40 0 22 -4 40 -10 40
-5 0 -12 11 -16 25 -3 14 -10 25 -15 25 -5 0 -9 12 -9 26 0 14 -7 32 -15 40
-8 9 -15 26 -15 40 0 13 -4 24 -10 24 -5 0 -10 11 -10 24 0 13 -7 26 -15 30
-8 3 -15 17 -15 31 0 14 -4 25 -10 25 -5 0 -12 11 -16 25 -3 14 -10 25 -15 25
-5 0 -9 11 -9 25 0 16 -6 25 -15 25 -9 0 -15 9 -15 25 0 14 -4 25 -10 25 -5 0
-10 7 -10 15 0 8 -4 15 -10 15 -5 0 -12 11 -16 25 -3 14 -10 25 -15 25 -5 0
-9 6 -9 14 0 8 -6 21 -13 28 -6 7 -21 30 -32 51 -11 20 -23 37 -26 37 -4 0
-10 11 -13 25 -4 14 -11 25 -16 25 -6 0 -10 7 -10 16 0 8 -6 22 -12 29 -29 32
-36 43 -42 63 -4 12 -12 22 -17 22 -5 0 -9 7 -9 15 0 8 -4 15 -10 15 -5 0 -10
7 -10 15 0 8 -7 15 -15 15 -9 0 -15 9 -15 25 0 16 -6 25 -15 25 -8 0 -15 5
-15 10 0 6 -11 23 -25 38 -14 15 -25 32 -25 39 0 7 -4 13 -10 13 -5 0 -10 7
-10 15 0 8 -7 15 -15 15 -8 0 -15 5 -15 11 0 6 -6 17 -12 24 -30 33 -38 45
-38 55 0 5 -7 10 -15 10 -8 0 -15 5 -15 10 0 6 -22 32 -50 59 -27 27 -50 52
-50 55 0 8 -14 25 -52 66 -16 15 -28 33 -28 39 0 6 -5 11 -11 11 -6 0 -17 6
-25 14 -8 8 -14 19 -14 25 0 6 -7 11 -15 11 -8 0 -15 5 -15 11 0 14 -25 39
-39 39 -6 0 -11 7 -11 15 0 8 -7 15 -15 15 -8 0 -15 5 -15 11 0 6 -6 17 -14
25 -8 8 -19 14 -25 14 -6 0 -11 7 -11 15 0 8 -5 15 -11 15 -6 0 -17 6 -25 14
-8 8 -14 19 -14 25 0 6 -7 11 -15 11 -8 0 -15 5 -15 11 0 6 -6 17 -14 25 -8 8
-19 14 -25 14 -6 0 -11 7 -11 15 0 8 -5 15 -11 15 -6 0 -28 18 -50 40 -22 22
-44 40 -50 40 -5 0 -43 34 -84 75 -42 41 -80 75 -85 75 -6 0 -10 7 -10 15 0 8
-7 15 -15 15 -9 0 -26 11 -39 25 -13 14 -28 25 -35 25 -6 0 -11 7 -11 15 0 8
-5 15 -11 15 -14 0 -39 25 -39 39 0 6 -7 11 -15 11 -8 0 -15 4 -15 10 0 5 -11
12 -25 16 -14 3 -25 10 -25 15 0 5 -7 9 -15 9 -8 0 -15 5 -15 11 0 6 -6 17
-14 25 -8 8 -19 14 -25 14 -6 0 -11 7 -11 15 0 9 -9 15 -25 15 -16 0 -25 6
-25 15 0 8 -5 15 -11 15 -6 0 -25 15 -42 34 -18 18 -42 36 -54 40 -13 4 -23
12 -23 17 0 15 70 10 86 -6z m-13302 -7668 c7 -7 16 -29 20 -50 4 -20 11 -37
16 -37 6 0 10 -11 10 -25 0 -16 6 -25 15 -25 9 0 15 -9 15 -25 0 -14 5 -25 10
-25 6 0 10 -11 10 -25 0 -14 7 -28 15 -31 8 -4 15 -17 15 -30 0 -13 4 -24 10
-24 5 0 12 -11 16 -25 3 -14 10 -25 15 -25 5 0 9 -11 9 -25 0 -16 6 -25 15
-25 9 0 15 -9 15 -25 0 -14 4 -25 9 -25 5 0 12 -11 15 -25 4 -14 11 -25 16
-25 6 0 10 -9 10 -20 0 -11 4 -20 10 -20 5 0 12 -11 16 -25 3 -14 10 -25 15
-25 5 0 9 -11 9 -25 0 -16 6 -25 15 -25 9 0 15 -9 15 -25 0 -14 5 -25 10 -25
6 0 10 -7 10 -15 0 -8 7 -15 15 -15 9 0 15 -9 15 -21 0 -12 11 -32 25 -45 14
-13 25 -32 25 -44 0 -11 7 -20 15 -20 8 0 15 -5 15 -11 0 -6 6 -17 13 -24 27
-31 37 -44 37 -51 0 -4 11 -17 25 -30 14 -13 25 -32 25 -44 0 -11 7 -20 15
-20 8 0 15 -5 15 -11 0 -7 11 -22 25 -35 14 -13 25 -30 25 -39 0 -8 7 -15 15
-15 8 0 15 -7 15 -15 0 -8 5 -15 10 -15 6 0 10 -5 10 -10 0 -10 8 -22 38 -55
6 -7 12 -18 12 -24 0 -6 7 -11 15 -11 8 0 15 -7 15 -15 0 -8 4 -15 9 -15 5 0
13 -10 17 -22 4 -13 22 -37 40 -55 19 -17 34 -36 34 -42 0 -6 7 -11 15 -11 8
0 15 -5 15 -10 0 -10 8 -22 38 -55 6 -7 12 -18 12 -24 0 -6 7 -11 15 -11 8 0
15 -5 15 -11 0 -6 23 -33 50 -59 28 -26 50 -53 50 -58 0 -6 18 -29 40 -51 22
-22 40 -44 40 -50 0 -6 5 -11 11 -11 14 0 39 -25 39 -39 0 -6 7 -11 15 -11 8
0 15 -7 15 -15 0 -8 5 -15 11 -15 14 0 39 -25 39 -39 0 -6 7 -11 15 -11 8 0
15 -5 15 -11 0 -14 25 -39 39 -39 6 0 11 -5 11 -11 0 -6 18 -28 40 -50 22 -22
40 -46 40 -54 0 -8 5 -15 11 -15 14 0 39 -25 39 -39 0 -6 7 -11 15 -11 8 0 15
-5 15 -10 0 -6 34 -43 75 -84 41 -41 75 -79 75 -85 0 -6 5 -11 11 -11 14 0 39
-25 39 -39 0 -6 7 -11 15 -11 8 0 15 -5 15 -10 0 -12 10 -25 53 -70 15 -15 27
-31 27 -35 0 -4 18 -24 40 -46 22 -22 40 -44 40 -50 0 -5 11 -20 25 -33 14
-13 25 -28 25 -35 0 -6 5 -11 11 -11 14 0 39 -25 39 -39 0 -6 4 -11 10 -11 5
0 12 -11 16 -25 3 -14 11 -25 16 -25 13 0 38 -26 38 -39 0 -6 7 -11 15 -11 8
0 15 -6 15 -13 0 -7 11 -21 25 -31 14 -10 25 -25 25 -33 0 -8 11 -24 25 -37
14 -13 25 -28 25 -35 0 -6 7 -11 15 -11 9 0 15 -9 15 -25 0 -14 4 -25 9 -25 5
0 12 -11 15 -25 4 -14 11 -25 16 -25 6 0 10 -18 10 -39 0 -23 5 -41 13 -44 16
-5 15 -349 -2 -355 -7 -2 -11 -33 -11 -82 0 -51 -4 -80 -12 -82 -6 -2 -13 -31
-16 -66 -2 -34 -8 -62 -12 -62 -4 0 -10 -30 -12 -67 -2 -39 -9 -68 -16 -71 -7
-2 -12 -26 -12 -62 0 -34 -5 -60 -11 -62 -6 -2 -14 -27 -17 -56 -2 -29 -8 -52
-13 -52 -5 0 -9 -21 -9 -46 0 -27 -6 -51 -15 -60 -8 -9 -15 -33 -15 -55 0 -21
-4 -39 -9 -39 -5 0 -11 -23 -13 -52 -3 -29 -11 -54 -17 -56 -6 -2 -11 -21 -11
-42 0 -21 -5 -40 -11 -42 -6 -2 -13 -25 -16 -51 -3 -26 -10 -47 -14 -47 -5 0
-9 -18 -9 -40 0 -29 -4 -40 -15 -40 -11 0 -15 -11 -15 -40 0 -22 -4 -40 -10
-40 -5 0 -10 -18 -10 -39 0 -22 -7 -46 -15 -55 -8 -8 -15 -30 -15 -49 0 -20
-5 -37 -11 -39 -6 -2 -13 -25 -16 -51 -3 -26 -10 -47 -14 -47 -5 0 -9 -18 -9
-39 0 -25 -5 -41 -15 -45 -9 -3 -15 -19 -15 -41 0 -19 -4 -35 -9 -35 -5 0 -12
-22 -16 -50 -4 -27 -11 -50 -16 -50 -5 0 -9 -17 -9 -37 0 -21 -7 -47 -15 -57
-8 -11 -15 -37 -15 -58 0 -21 -4 -38 -10 -38 -5 0 -10 -16 -10 -36 0 -19 -7
-42 -15 -50 -10 -10 -15 -35 -15 -70 0 -30 -4 -54 -10 -54 -5 0 -12 -11 -16
-25 -5 -19 -13 -25 -35 -25 -22 0 -44 -15 -94 -65 -36 -36 -75 -65 -85 -65
-11 0 -20 -7 -20 -15 0 -8 -5 -15 -11 -15 -14 0 -39 -25 -39 -39 0 -6 -9 -11
-20 -11 -12 0 -31 -11 -44 -25 -13 -14 -28 -25 -35 -25 -6 0 -11 -4 -11 -10 0
-5 -11 -12 -25 -16 -14 -3 -25 -10 -25 -14 0 -4 -11 -11 -25 -14 -14 -4 -25
-11 -25 -16 0 -6 -10 -10 -21 -10 -12 0 -32 -11 -45 -25 -13 -14 -34 -25 -47
-25 -14 0 -30 -7 -37 -15 -7 -8 -23 -15 -36 -15 -13 0 -24 -4 -24 -10 0 -5
-11 -10 -24 -10 -14 0 -31 -7 -40 -15 -9 -10 -34 -15 -70 -15 -31 0 -56 -4
-56 -10 0 -15 -60 -12 -76 4 -16 17 -19 36 -4 36 6 0 10 45 10 114 0 72 4 116
11 118 5 2 13 38 16 81 5 66 4 77 -10 77 -8 0 -17 6 -20 13 -5 16 -200 14
-205 -2 -2 -6 -13 -11 -24 -11 -10 0 -26 -7 -34 -15 -9 -8 -29 -15 -45 -15
-16 0 -29 -4 -29 -9 0 -4 -21 -11 -47 -14 -26 -3 -49 -10 -51 -16 -2 -6 -23
-11 -47 -11 -23 0 -56 -7 -71 -15 -16 -8 -48 -15 -71 -15 -24 0 -43 -4 -43
-10 0 -5 -13 -10 -28 -10 -16 0 -37 -7 -48 -15 -10 -8 -29 -15 -41 -15 -13 0
-23 -4 -23 -10 0 -5 -16 -12 -35 -16 -19 -3 -35 -10 -35 -15 0 -5 -13 -9 -30
-9 -20 0 -30 -5 -30 -15 0 -9 -9 -15 -25 -15 -14 0 -25 -4 -25 -10 0 -5 -13
-10 -29 -10 -16 0 -36 -7 -45 -15 -8 -8 -31 -15 -50 -15 -20 0 -36 -4 -36 -10
0 -5 -11 -12 -25 -16 -14 -3 -25 -10 -25 -15 0 -5 -11 -9 -25 -9 -16 0 -25 -6
-25 -15 0 -9 -9 -15 -25 -15 -14 0 -25 -4 -25 -9 0 -5 -11 -12 -25 -15 -14 -4
-25 -11 -25 -16 0 -6 -5 -10 -11 -10 -6 0 -17 -7 -25 -15 -20 -20 -68 -19 -88
1 -20 20 -21 68 -1 88 8 8 15 24 15 35 0 12 4 21 10 21 5 0 12 11 16 25 3 14
10 25 14 25 4 0 11 11 14 25 4 14 11 25 16 25 6 0 10 5 10 10 0 14 186 200
199 200 6 0 11 7 11 15 0 9 9 15 25 15 14 0 25 5 25 11 0 15 19 31 65 54 22
11 42 23 43 28 2 4 12 7 23 7 11 0 22 7 25 15 4 8 15 15 26 15 11 0 26 7 34
15 9 8 26 15 40 15 13 0 24 5 24 10 0 6 11 10 25 10 14 0 28 7 31 15 4 8 17
15 30 15 13 0 24 5 24 10 0 6 11 10 25 10 16 0 25 6 25 15 0 9 9 15 24 15 13
0 26 7 30 15 3 8 14 15 25 15 11 0 21 3 23 8 2 4 21 16 43 27 40 20 53 29 80
53 7 6 18 12 24 12 6 0 11 7 11 15 0 8 5 15 11 15 16 0 166 155 174 179 3 12
11 21 16 21 5 0 9 5 9 11 0 6 7 17 15 25 8 9 15 24 15 35 0 10 5 19 10 19 6 0
10 11 10 24 0 14 7 31 15 40 8 8 15 31 15 50 0 25 4 36 15 36 10 0 15 11 15
35 0 19 5 35 10 35 6 0 10 20 10 44 0 26 6 51 15 60 9 9 15 34 15 65 0 28 4
51 8 51 5 0 12 44 15 97 4 54 11 99 17 101 14 5 14 429 0 434 -6 2 -14 50 -17
111 -3 59 -10 107 -15 107 -4 0 -8 29 -8 65 0 36 -7 82 -15 102 -8 19 -15 62
-15 94 0 33 -4 59 -9 59 -5 0 -11 28 -13 62 -3 35 -10 64 -16 66 -7 2 -12 19
-12 37 0 20 -6 35 -15 39 -8 3 -15 17 -15 31 0 14 -4 25 -10 25 -5 0 -10 18
-10 40 0 29 -4 40 -15 40 -10 0 -15 11 -15 35 0 19 -4 35 -9 35 -5 0 -12 14
-16 30 -4 17 -11 30 -16 30 -5 0 -9 11 -9 25 0 14 -4 25 -10 25 -5 0 -13 18
-16 40 -4 22 -10 40 -14 40 -4 0 -11 11 -14 25 -4 14 -11 25 -16 25 -6 0 -10
12 -10 26 0 14 -7 32 -15 40 -8 9 -15 26 -15 40 0 13 -4 24 -10 24 -5 0 -10
11 -10 24 0 13 -7 26 -15 30 -8 3 -15 17 -15 31 0 14 -4 25 -10 25 -5 0 -10
11 -10 24 0 14 -7 31 -15 40 -8 8 -15 26 -15 40 0 14 -4 26 -10 26 -5 0 -10
11 -10 24 0 14 -7 31 -15 40 -8 8 -15 24 -15 36 0 12 -7 28 -15 36 -8 9 -15
29 -15 45 0 16 -4 29 -10 29 -5 0 -10 11 -10 25 0 16 -6 25 -15 25 -10 0 -15
11 -15 35 0 19 -4 35 -9 35 -5 0 -12 14 -16 30 -4 17 -11 30 -16 30 -5 0 -9
16 -9 36 0 19 -7 42 -15 50 -8 9 -15 29 -15 45 0 16 -4 29 -10 29 -5 0 -10 16
-10 35 0 22 -6 38 -15 41 -10 4 -15 20 -15 51 0 26 -6 51 -15 59 -8 9 -15 33
-15 55 0 21 -4 39 -10 39 -6 0 -10 28 -10 63 0 40 -5 70 -15 83 -9 12 -14 44
-15 92 0 39 -4 72 -9 72 -5 0 -11 37 -13 82 -2 53 -8 83 -16 86 -18 6 -18 818
1 824 8 3 13 35 15 96 2 51 8 92 13 92 5 0 9 34 9 75 0 75 8 89 34 62z"/>
<path d="M7294 16895 c-12 -9 -43 -14 -86 -15 -38 0 -68 -4 -68 -9 0 -6 -20
-13 -45 -17 -25 -3 -45 -10 -45 -15 0 -5 -21 -9 -46 -9 -27 0 -51 -6 -60 -15
-9 -8 -29 -15 -45 -15 -16 0 -29 -4 -29 -10 0 -5 -11 -10 -25 -10 -16 0 -25
-6 -25 -15 0 -9 -9 -15 -25 -15 -14 0 -25 -4 -25 -9 0 -5 -13 -12 -30 -16 -16
-4 -30 -11 -30 -16 0 -5 -9 -9 -20 -9 -11 0 -23 -7 -26 -15 -4 -8 -17 -15 -30
-15 -13 0 -24 -4 -24 -8 0 -5 -17 -17 -37 -28 -21 -10 -44 -25 -51 -31 -7 -7
-18 -13 -24 -13 -6 0 -21 -11 -34 -25 -13 -14 -30 -25 -39 -25 -8 0 -15 -4
-15 -10 0 -5 -7 -10 -15 -10 -9 0 -18 -7 -21 -15 -4 -8 -13 -15 -21 -15 -7 0
-24 -11 -37 -25 -13 -14 -28 -25 -35 -25 -6 0 -11 -4 -11 -10 0 -5 -11 -12
-25 -16 -14 -3 -25 -12 -25 -20 0 -8 -4 -14 -10 -14 -5 0 -10 -9 -10 -20 0
-11 -7 -23 -15 -26 -8 -4 -15 -11 -15 -18 0 -14 433 -10 438 5 2 5 75 9 173 9
l169 0 0 -25 c0 -14 5 -25 11 -25 14 0 39 -25 39 -39 0 -6 7 -11 15 -11 8 0
15 -7 15 -15 0 -8 5 -15 10 -15 6 0 22 -11 36 -25 14 -14 31 -25 39 -25 8 0
15 -4 15 -9 0 -5 11 -12 25 -15 14 -4 25 -11 25 -16 0 -6 11 -10 24 -10 13 0
26 -7 30 -15 3 -8 17 -15 31 -15 14 0 25 -4 25 -10 0 -5 16 -10 36 -10 19 0
42 -7 50 -15 22 -21 260 -21 288 0 11 8 37 15 58 15 21 0 38 4 38 9 0 5 18 11
40 15 22 3 40 11 40 16 0 6 11 10 25 10 14 0 25 5 25 10 0 6 11 10 24 10 14 0
31 7 40 15 8 8 24 15 36 15 11 0 23 7 26 15 4 8 10 15 16 15 13 0 38 26 38 39
0 6 5 11 11 11 14 0 119 105 119 119 0 6 7 11 15 11 8 0 15 7 15 15 0 8 5 15
10 15 6 0 10 11 10 25 l0 25 110 0 c67 0 110 4 110 10 0 6 26 10 59 10 40 0
65 5 75 15 8 8 22 15 30 15 9 0 16 7 16 15 0 8 4 15 9 15 5 0 12 12 16 27 6
24 8 26 16 10 11 -19 29 -23 29 -6 0 14 -25 39 -39 39 -6 0 -11 7 -11 15 0 8
-5 15 -11 15 -6 0 -17 6 -24 13 -33 29 -45 37 -55 37 -5 0 -10 7 -10 15 0 8
-5 15 -11 15 -7 0 -22 11 -35 25 -13 14 -32 25 -44 25 -11 0 -20 7 -20 15 0 9
-9 15 -25 15 -14 0 -25 5 -25 10 0 6 -18 10 -39 10 -22 0 -46 7 -55 15 -9 9
-34 15 -65 15 -28 0 -51 4 -51 9 0 5 -29 12 -65 16 -36 3 -65 11 -65 16 0 5
-34 9 -76 9 -54 0 -80 4 -90 15 -23 22 -580 22 -610 0z"/>
<path d="M10400 16685 c-7 -8 -17 -15 -22 -15 -13 0 -38 -26 -38 -39 0 -6 -7
-11 -15 -11 -8 0 -15 -7 -15 -15 0 -8 -4 -15 -10 -15 -5 0 -10 -11 -10 -25 0
-16 -6 -25 -15 -25 -12 0 -15 -14 -15 -70 0 -57 4 -74 20 -90 11 -11 23 -20
26 -20 3 0 12 -7 20 -15 11 -11 37 -15 94 -15 53 0 80 -4 84 -12 5 -10 7 -10
12 0 3 7 25 12 53 12 49 0 72 16 86 59 3 12 11 21 16 21 16 0 11 136 -6 150
-8 7 -15 21 -15 32 0 18 -50 78 -65 78 -4 0 -13 7 -21 15 -11 10 -36 15 -83
15 -49 0 -72 -4 -81 -15z"/>
<path d="M9120 10115 c0 -8 5 -15 10 -15 6 0 10 7 10 15 0 8 -4 15 -10 15 -5
0 -10 -7 -10 -15z"/>
</g>
</svg>
